<?xml version="1.0" encoding="UTF-8"?>
<svg width="116px" height="43px" viewBox="0 0 116 43" version="1.1" xmlns="http://www.w3.org/2000/svg" xmlns:xlink="http://www.w3.org/1999/xlink">
    <!-- Generator: Sketch 52.5 (67469) - http://www.bohemiancoding.com/sketch -->
    <title>REACT.js</title>
    <desc>Created with Sketch.</desc>
    <g id="Page-2" stroke="none" stroke-width="1" fill="none" fill-rule="evenodd">
        <g id="Symbols" transform="translate(-375.000000, -634.000000)" fill="#FFFFFF">
            <path d="M387.26,653.84 C389.444011,654.429336 390.536,656.058653 390.536,658.728 L390.536,671 L386.376,671 L386.376,658.884 C386.376,656.769323 385.318677,655.712 383.204,655.712 L380.136,655.712 L380.136,671 L375.976,671 L375.976,634.6 L383.724,634.6 C388.230689,634.6 390.484,636.853311 390.484,641.36 L390.484,648.12 C390.484,651.066681 389.409344,652.973329 387.26,653.84 Z M386.324,641.152 C386.324,639.314657 385.405343,638.396 383.568,638.396 L380.136,638.396 L380.136,652.02 L383.256,652.02 C385.301344,652.02 386.324,650.997344 386.324,648.952 L386.324,641.152 Z M394.384,634.6 L405.824,634.6 L405.824,638.448 L398.544,638.448 L398.544,650.512 L405.564,650.512 L405.564,654.308 L398.544,654.308 L398.544,667.152 L405.928,667.152 L405.928,671 L394.384,671 L394.384,634.6 Z M419.188,634.496 L424.804,671 L420.696,671 L419.812,664.916 L413.104,664.916 L412.272,671 L408.268,671 L413.884,634.496 L419.188,634.496 Z M416.484,641.048 L413.624,661.172 L419.292,661.172 L416.484,641.048 Z M438.376,657.012 L442.432,657.012 L442.432,664.552 C442.432,669.058689 440.178689,671.312 435.672,671.312 L434.32,671.312 C429.813311,671.312 427.56,669.058689 427.56,664.552 L427.56,641.048 C427.56,636.541311 429.813311,634.288 434.32,634.288 L435.672,634.288 C440.109356,634.288 442.328,636.506644 442.328,640.944 L442.328,647.496 L438.272,647.496 L438.272,640.84 C438.272,639.002657 437.353343,638.084 435.516,638.084 L434.476,638.084 C432.638657,638.084 431.72,639.002657 431.72,640.84 L431.72,664.76 C431.72,666.597343 432.638657,667.516 434.476,667.516 L435.62,667.516 C437.457343,667.516 438.376,666.597343 438.376,664.76 L438.376,657.012 Z M454.236,671 L450.076,671 L450.076,638.448 L444.616,638.448 L444.616,634.6 L459.696,634.6 L459.696,638.448 L454.236,638.448 L454.236,671 Z M465.832,664.968 L465.832,671 L461.776,671 L461.776,664.968 L465.832,664.968 Z M469.264,640.06 L469.264,635.64 L473.424,635.64 L473.424,640.06 L469.264,640.06 Z M473.32,642.92 L473.32,671.572 C473.32,675.073351 471.569351,676.824 468.068,676.824 L467.392,676.824 L467.392,673.288 L467.496,673.288 C468.744006,673.288 469.368,672.664006 469.368,671.416 L469.368,642.92 L473.32,642.92 Z M486.32,652.8 L486.32,648.588 C486.32,646.993325 485.522675,646.196 483.928,646.196 L483.252,646.196 C481.657325,646.196 480.86,646.993325 480.86,648.588 L480.86,651.032 C480.86,652.210673 481.345328,653.094664 482.316,653.684 L486.996,656.596 C488.174673,657.35867 489.015331,658.138663 489.518,658.936 C490.020669,659.733337 490.272,660.807993 490.272,662.16 L490.272,664.968 C490.272,669.197354 488.157354,671.312 483.928,671.312 L483.148,671.312 C478.987979,671.312 476.908,669.232021 476.908,665.072 L476.908,660.912 L480.808,660.912 L480.808,665.332 C480.808,666.926675 481.605325,667.724 483.2,667.724 L483.98,667.724 C485.574675,667.724 486.372,666.926675 486.372,665.332 L486.372,662.68 C486.372,661.535994 485.886672,660.652003 484.916,660.028 L480.236,657.116 C479.057327,656.35333 478.216669,655.573337 477.714,654.776 C477.211331,653.978663 476.96,652.904007 476.96,651.552 L476.96,648.952 C476.96,644.722646 479.074646,642.608 483.304,642.608 L483.98,642.608 C488.140021,642.608 490.22,644.687979 490.22,648.848 L490.22,652.8 L486.32,652.8 Z" id="REACT.js"></path>
        </g>
    </g>
</svg>