<svg xmlns="http://www.w3.org/2000/svg" viewBox="0 0 525.5 525.5"><path d="M123.3 254.9h-21.8c-.3 0-.5.2-.5.5s.2.5.5.5h21.8c.3 0 .5-.2.5-.5s-.2-.5-.5-.5zm32.6-23.4c.5 2.5.4 4.8-.3 6.8-.1.3.1.5.3.6h.2c.2 0 .4-.1.5-.3.7-2.2.8-4.7.3-7.3-.6-3.1-1.3-6.3-2.1-9.6-.1-.3-.3-.4-.6-.4-.3.1-.4.3-.4.6.8 3.3 1.5 6.5 2.1 9.6zm-3.3-17.3h.1c.3-.1.4-.3.4-.6-1.8-8.2-3.8-18.1-5.1-29.2 0-.3-.3-.5-.6-.4-.3 0-.5.3-.4.6 1.3 11.1 3.3 21 5.1 29.3 0 .2.3.3.5.3zM292 201.4c-18.6-1.6-44.4-3.8-61.4-5.7-2.1-.2-4 1.2-4.3 3.3-.2 1.1.1 2.2.8 3 .7.8 1.7 1.4 2.8 1.4 4.7.2 35.3 1.5 46.9 1.8.3 0 .5-.2.5-.5s-.2-.5-.5-.5c-11.7-.4-42.2-1.6-46.9-1.8-.8 0-1.6-.4-2.1-1.1-.5-.6-.7-1.5-.6-2.3.2-1.5 1.6-2.6 3.2-2.4 17 1.9 42.8 4.1 61.4 5.7.3 0 .5-.2.5-.5.2-.1 0-.3-.3-.4zM91.1 326.8c-.2-.2-.5-.1-.7.1 0 .1-.1.1-.1.2-.2-.2-.5-.2-.7 0-4.6 5.1-2.1 19.1 3.2 25.9 2.2 2.8 4.6 4.2 7.1 4.2 1.1 0 2.3-.3 3.4-.9 1.5-.8 2.3-2.1 2.5-3.8.7-7.9-11.6-23.3-14.7-25.7zm13.7 25.5c-.1 1.5-.8 2.5-1.9 3.1-4.1 2.1-7.3-.5-9.3-3.1-5.5-7.1-7.2-20.2-3.2-24.6.1-.1.1-.1.1-.2 3.2 2.6 15 17.7 14.3 24.8z"/><path d="M463.3 337c.1-.2.2-.5.1-.8l-6.5-25c-.1-.5-.7-.9-1.2-.7-.3.1-.5.3-.7.6-.3.2-.8.4-1.4.8 2.4-17.1-11.4-37.3-18.8-48.3-1.3-1.9-2.4-3.5-3.1-4.7-.1-.2-.4-.4-.7-.5-.3-.1-.6 0-.8.2-.1.1-3.2 2.3-8.1 5.6v-51.3c0-2.3-1.9-4.2-4.2-4.2h-50.2c27.4-2.2 44.3-8.8 51.8-20 .5-.8 1-1.6 1.4-2.4.4-.8.2-1.9-.4-2.4-.5-.4-1.2-.4-1.7 0l-.2-.6c-1.9-4.2-5.2-7.4-9.4-9l-57.3-23.4-10.4-5.7 1.3-3.6c.2-.5-.1-1.1-.6-1.3-.5-.2-1.1.1-1.3.6l-1.2 3.3-10.9-6 1.2-3.6c.2-.5-.1-1.1-.6-1.3-.5-.2-1.1.1-1.3.6l-1.1 3.2-10.7-5.9 1.2-3.6c.2-.5-.1-1.1-.6-1.3-.5-.2-1.1.1-1.3.6l-1.1 3.3-18-9.9c-3.9-2.3-8.5-2.3-12.1.1-3.4 2.2-5.1 6-4.6 10.1l1 9.3c-6.1 4.8-13.1 7.4-20.1 7.4-6.5 0-12.5-1.7-18.1-4.9-4.4-2.6-8.2-6.1-11.3-10.3-1.4-1.9-3.7-3.6-5.6-3.1-.6.2-1.6.7-1.9 2.3v57.3l-2.8-.3c-1.8-.2-3.4 1.2-3.9 3.4l-1.7 11.5c-.3 1.6 0 3.2.9 4.4.3.4.7.8 1.1 1h-5.5c-2.3 0-4.2 1.9-4.2 4.2v47.1c-6.7-7-12.5-20.5-19.3-47.2-5.4-21.3-10.8-54.3-10.8-54.7 0-.3-.2-.5-.5-.7-.2-.2-.5-.2-.8-.1-3 .9-6 1.6-8.8 2.1-9.6 2-18 3.7-17.4 17.7-3.3-1.1-13.2-3.6-35-1.9-.6-2.4-1.6-4.3-3-5.8-3.7-3.9-9.4-3.8-14.4-3.7-1.6 0-3.1.1-4.5 0-.3 0-.6.1-.8.3-.2.2-.3.5-.3.8 0 .2 1.8 21.1-3.7 32.5-5.8 12.1-9 29.8-3.8 40.3l1 6.9H85c-.3 0-.5.2-.5.5s.2.5.5.5h.8l1.1 7.3h-.7c-.3 0-.5.2-.5.5s.2.5.5.5h.8l1.1 7.3h-.7c-.3 0-.5.2-.5.5s.2.5.5.5h.8l1.1 7.3h-.6c-.3 0-.5.2-.5.5s.2.5.5.5h.7l1.1 7.3h-.6c-.3 0-.5.2-.5.5s.2.5.5.5h.8l1.1 7.3h-.4c-.3 0-.5.2-.5.5s.2.5.5.5h.5l1.1 7.3h-.5c-.3 0-.5.2-.5.5s.2.5.5.5h.7l1.1 7.3h-.6c-.3 0-.5.2-.5.5s.2.5.5.5h.8l.6 4.4H66.2c-2.3 0-4.2 1.9-4.2 4.2v82.9c0 .6.4 1 1 1h163.4l-26.7 7c-.5.1-.8.6-.7 1.1.1.5.5.9 1 .9h261.2c.6 0 1-.4 1-1v-10h.4c.3 0 .5-.2.5-.5s-.2-.5-.5-.5h-.4v-10.5h.4c.3 0 .5-.2.5-.5s-.2-.5-.5-.5h-.4v-10.5h.4c.3 0 .5-.2.5-.5s-.2-.5-.5-.5h-.4v-10.5h.7c.3 0 .5-.2.5-.5s-.2-.5-.5-.5h-.7v-10.5h.7c.3 0 .5-.2.5-.5s-.2-.5-.5-.5h-.7v-7.2c0-1.3-.6-2.5-1.6-3.3-.1-.1-.2-.1-.4-.2l2.6-.7c.2-.1.4-.3.5-.5zm-135.7 34.4c3.9-1.6 6.9-3.1 9-4.3 1.8-1.1 3.6-2.2 5.3-3.3 11.4-7 22.1-13.7 41-21l3.4 13.2-58.7 15.4zm55.8-30.8h-.1c-.1 0-.1.1-.2.1-19.6 7.5-30.6 14.3-42.3 21.5-1.7 1.1-3.5 2.2-5.3 3.3-9.5 5.8-41.1 17.2-93.1 19.1-28.3 1-40.8-2.1-45.9-4.1 11.7.9 22.9 1.4 33.6 1.4 29.9 0 56.4-3.7 82.9-11.3 15.3-4.4 23.8-9.6 32.7-15.1 10.8-6.6 23-14.1 49.9-21.8.6-.2 1.1-.3 1.7-.5h.2c.1 0 .1-.1.1-.1 33.9-9.9 49.2-16.6 55.2-19.6.2 0 .3-.1.4-.2.8-.4 1.5-.8 1.9-1.1l.8 3.2c-21 10.3-43.1 16.5-57.7 20.6-6.3 1.9-11.4 3.3-14.8 4.6zm-167 16.3c12.5-6.5 27.6-11.4 35.2-13.7v1.5c0 .3.2.5.5.5s.5-.2.5-.5v-1.8c.4-.1.8-.2 1.1-.3 1.3-.4 2.6-.8 3.8-1.2-.1 8.1 4.7 29.5 9.2 37.3-1.8.2-3.7.4-5.5.6-2.1-3.7-4.5-10.9-6.3-19.3-.1-.3-.3-.4-.6-.4-.3.1-.4.3-.4.6 1.8 8.2 4.1 15.3 6.2 19.2-19.7 1.8-40.5 1.8-63.5 0-1.7-7.1 4.9-14.7 19.8-22.5zm40-17.6c-4.2-2.3-8.3-1.2-12.2-.2-2.2.6-4.4 1.1-6.6 1.2-3.7 0-6.1-1.4-8.7-3-1.8-1.1-3.6-2.2-6-2.7-10.7-2.4-20.8 5.4-25.4 14.3-1.3 2.5-1.8 4.5-2.4 6.3-1 3.3-1.6 5.7-5.9 8.8-1.4 1-3.2 1.5-5.1 2-2.9.8-5.9 1.6-7.6 4.2-3.8 5.9-.3 10.3 3.1 14.5 2.9 3.6 5.6 6.9 4.4 11.2h-9.3c-3.7-6.5-9.8-9.6-15.7-12.5-5.7-2.8-11-5.5-13.9-11-2.8-5.3-3.4-9.4-2.1-12.5 2.2-5 9.2-7 16-8.9.7-.2 1.5-.4 2.2-.6 8.7-2.5 9.5-7.3 10.5-12.4.7-3.8 1.4-7.7 5.4-11.2 4.5-3.9 10.7-4.9 16.6-5.9 7.3-1.2 14.8-2.5 19.6-8.9v-.1h8.3c3.5.5 6.7 3.6 10.1 6.8 3.9 3.8 7.9 7.7 13 8.2 1.8.2 3.5.3 5.1.4 7.2.4 12.5.7 15.4 8.9-3 1.4-6 2.5-8.6 3.4.1-.1 0-.3-.2-.3zm-96.6 56.6c-9.2-3.2-18.5-7.1-24.3-14.7-2.4-3.2-4.3-6.3-6.1-9.2-2.9-4.8-5.6-9.3-10.4-13.8-4.6-4.4-6.2-9.3-7.8-14.5-1.2-3.8-2.4-7.8-4.9-11.7-1.6-2.4-3.8-4.6-5.9-6.7-3.9-3.8-7.9-7.7-8.2-13.4h7.5c.6 3.7 3 6 5.4 8.2 1.3 1.2 2.6 2.4 3.6 3.8 2.3 3.2 3.4 6.5 4.6 10 .8 2.4 1.6 4.9 2.9 7.3 2.4 4.7 4.8 7.3 7.5 8.2.7.2 1.4.3 2.1.3 2.7 0 5.5-1.4 8.6-3.1 2.2-1.2 4.7-2.5 7.5-3.4 2.2-.7 3.9-1 5.4-1.2 3.3-.5 5.6-.9 8.9-5.5 1.1-1.6 1.4-3.7 1.7-5.7.3-1.9.5-3.7 1.4-5.2 4.1-6.4 12.3-8.2 20.2-10 4.4-1 9-2 12.9-3.9h19.7c-4.6 5.6-11.4 6.8-18.6 8-6.1 1-12.4 2.1-17.1 6.2-4.2 3.7-5 8-5.7 11.8-.9 5-1.7 9.3-9.7 11.7-.7.2-1.4.4-2.2.6-7 2-14.3 4-16.7 9.4-1.5 3.5-.8 7.8 2.1 13.4 3 5.8 8.5 8.5 14.3 11.4 5.6 2.8 11.4 5.7 15 11.6h-13.7zm-21.3 0c-10.2-6.5-11.9-9.4-16.7-17.8-.6-1-1.2-2.2-1.9-3.4-5-8.7-9.5-9.2-15.2-9.8-3.4-.4-7.2-.8-11.8-3.1-7.2-3.6-13.4-13.2-13.9-21.4-.1-2.5 1.4-6.2 3-10.2 2.8-6.6 5.9-14.1 1.6-18.3h7.5c.3 6.1 4.4 10.2 8.5 14.1 2.1 2 4.2 4.2 5.8 6.5 2.5 3.8 3.7 7.7 4.8 11.4 1.6 5.3 3.2 10.4 8 15 4.7 4.4 7.4 8.9 10.2 13.6 1.8 3 3.7 6.1 6.1 9.3 5.4 7.1 13.8 11 22.2 14.1h-18.2zm-16 0c-4.2-1.9-5.9-7.1-7.6-12.2-1.2-3.7-2.4-7.3-4.4-9.5-3.5-3.7-8.1-4.3-12.5-4.9-3.8-.5-7.7-1-11.1-3.4-7.8-5.5-15.4-17-14.6-26.8.2-2.9 1.4-6 2.6-9.3 2.2-6.1 4.5-12.4 1-18.1h6.3c5 3.5 1.8 11.2-1 17.9-1.7 4-3.3 7.9-3.1 10.6.5 8.5 7 18.5 14.5 22.3 4.7 2.4 8.7 2.8 12.1 3.2 5.4.6 9.7 1.1 14.5 9.3.7 1.2 1.3 2.3 1.9 3.4 4.5 8 6.4 11.2 15.7 17.3h-14.3zm8.9-137.1c5.9 4.4 11.8 9.7 17.5 16.3 3 3.5 5.6 6.7 8 9.6 11 13.6 17 21 35.2 21 13.5 0 33.7-4.1 67.5-12.7l.8 3.2c-81.7 19-84.8 18.5-107.1-10.7-10.5-13.8-20-21.7-22-23.4v-3.3zm58.5 53.1c-3.3 1.3-7 2.1-10.6 2.9-8.1 1.8-16.4 3.7-20.8 10.4-1.1 1.6-1.3 3.6-1.6 5.6-.3 2-.5 3.8-1.5 5.2-3 4.2-4.9 4.5-8.2 5-1.6.2-3.3.5-5.6 1.3-2.9.9-5.4 2.3-7.7 3.4-3.9 2-7 3.6-10 2.7-2.4-.8-4.6-3.2-6.9-7.7-1.2-2.4-2.1-4.8-2.8-7.2-1.1-3.4-2.3-6.9-4.7-10.2-1.1-1.5-2.4-2.7-3.7-3.9-2.3-2.2-4.5-4.2-5.1-7.5h7.6c6.2 1.8 8.7 6.7 11.1 11.4 2.6 5.2 5.1 10.2 12.2 10.2 1.2 0 2.6-.1 4.1-.5 7.1-1.5 12.8-4.1 16.8-7.8 1.6-1.4 2.9-2.7 4.2-4 3.9-3.9 7.1-7 13.4-9.4h19.8zm-33.8 8.6c-1.3 1.3-2.6 2.6-4.2 4-3.9 3.5-9.4 6.1-16.4 7.5-9.7 2-12.3-3.2-15.3-9.2-2-4.1-4.3-8.6-9.2-11h11.2c2.1 1 2.7 3.2 3.3 5.7 1 3.6 2.1 7.7 8.2 8.2h1.1c8 0 16.3-6.7 19.6-13.4.1-.2 0-.4-.1-.6h13.1c-4.9 2.5-7.9 5.4-11.3 8.8zm-2.4-8.5c-3.3 6.6-11.8 13.4-19.8 12.8-5.4-.4-6.3-3.8-7.3-7.4-.5-2-1.1-4.1-2.5-5.5h7.6c.5.3 1 .6 1.6 1.1 1.9 1.3 4.1 2.9 6.7 2.9 2 0 4.1-.9 6.5-3.5.1-.1.1-.3.1-.5h7.2c-.1 0-.1 0-.1.1zm-19.9.1c-.1-.1-.2-.2-.3-.2h12.1c-4.9 5.1-8.6 2.5-11.8.2zm167.5-3.7l-4.3-4.2c1.8-2.2 4-4.6 6.7-7.3l4.5 4.4c.2.2.4.3.7.3.3 0 .5-.1.7-.3.4-.4.4-1 0-1.4l-4.5-4.4 1.4-1.4c1.7-1.7 3.6-3.6 5.6-5.7l4.5 4.4c.2.2.4.3.7.3.3 0 .5-.1.7-.3.4-.4.4-1 0-1.4l-4.5-4.4c2.1-2.2 4.4-4.6 6.8-7.3l4.6 4.5c.2.2.4.3.7.3.3 0 .5-.1.7-.3.4-.4.4-1 0-1.4l-4.7-4.6c6.3-7 12.7-3.6 21.6 1.1 11 5.8 24.6 13.1 45 5.2 11.6-4.5 23.3-11.2 31.6-16.5.7.8 1.4 1.6 2.1 2.5l1.5 1.8c-6 4.1-13.4 8.9-23.1 13.5-.2.1-.4.4-.2.7.1.2.3.3.5.3h.2c9.8-4.7 17.3-9.5 23.3-13.7 2.9 3.5 5.4 7 4.8 10.2-.4 2.2-2.2 4-5.4 5.7-.2.1-.3.4-.2.7.1.2.3.3.4.3.1 0 .2 0 .2-.1 3.5-1.8 5.5-3.9 5.9-6.4.8-4.4-3.2-9.1-7.2-13.6-.7-.8-1.4-1.6-2-2.4 1.4-.9 2.8-1.8 4-2.6 0 .1 0 .1.1.2l1.8 2.1c4.6 5.5 10.4 12.4 9.3 18-.5 2.6-2.5 4.8-6 6.6-3.8 2-7.2 3.7-10.1 5.2-21.5 10.8-24.8 12.5-16.8 33.5-1.7.5-3.5 1-5.3 1.6-1.2-3.2-2.1-6-2.7-8.5-.1-.3-.3-.4-.6-.4s-.4.3-.4.6c.6 2.5 1.5 5.3 2.7 8.5-.5.1-.9.3-1.3.4-.5.1-1 .3-1.5.4-6.3-12.6-16.4-19.6-30-20.8-.3 0-.5.2-.5.5s.2.5.5.5c13.2 1.2 23 7.9 29.1 20.1-1.6.5-3.2 1-4.7 1.4 0-.1 0-.3-.1-.4-4-8.2-10.2-13.5-18.6-15.8-11.3-3.1-26.2-.8-44.3 7-11.2 4.8-20.2 10.3-22.9 12-.8-1.2-1.5-2.3-2.1-3.4 1.2-.7 2.7-1.6 4.3-2.5.2-.1.3-.4.2-.7s-.4-.3-.7-.2c-1.7 1-3.1 1.8-4.4 2.5-3.8-6.2-6.1-10.9-6.9-14.8v-.2c-1-4.8.2-8.5 3.1-12.6l4.2 4.1c.2.2.4.3.7.3.3 0 .5-.1.7-.3.3-.4.3-1-.1-1.4zm29.8-36.2l4.8-4.9c1.8 1.1 6.9 4.7 9.1 10.6-.2-.1-.5-.3-.7-.4-4.7-2.5-9.1-4.8-13.2-5.3zm-29.9 67.4c.1.2.4.4.6.4h.2c.2 0 .4-.1.6-.2.4-.3 40.4-26.4 66.4-19.3 7.8 2.1 13.6 7.1 17.3 14.8 0 .1.1.1.1.1-20.9 6.8-31.6 13.3-41.2 19.2-8.9 5.4-17.3 10.6-32.5 14.9-14.5 4.2-28.9 7.1-44 9 0-.2 0-.4-.1-.6-4.8-8.1-9.5-30.8-9-37.2 14.2-5.1 25.7-13.4 31.7-20 1.4 4.9 4.6 10.9 9.9 18.9zm-31.2-8.7c-1.2-1.7-1.8-3.3-2.3-4.7-1.2-3.1-2.2-5.6-8.2-7.6-2.1-.7-4.1-1-6-1.3-4.1-.6-7.6-1.1-10.2-5.5h24.6c1.2 0 2.2 1 2.2 2.2v16.9zm-28-19c2.9 5.3 6.9 5.9 11.2 6.5 1.9.3 3.9.5 5.8 1.2 5.6 1.9 6.5 4.1 7.6 7 .7 1.7 1.5 3.7 3.3 6v.9c0 .1 0 .3.1.4-1.3.7-2.6 1.3-3.9 1.9-3.2-8.7-9.2-9.1-16.2-9.4-1.6-.1-3.3-.2-5.1-.4-4.7-.5-8.6-4.3-12.4-8-2.5-2.4-5-4.8-7.6-6.1H242zm209.7 1c-5.9 2.9-19.4 8.8-46.9 17v-.1c-7.3-19.4-5.6-20.3 15.8-31.1 3-1.5 6.4-3.2 10.2-5.2 4-2.1 6.4-4.8 7-8 1.1-5.5-3.1-11.6-7.4-16.8 1.2-.9 2.6-1.9 3.7-2.7 7.6 11.2 20.2 30.5 17.5 46.3-.1.2 0 .4.1.6zm-21.1-52.1c.7 1.1 1.6 2.4 2.6 3.9.1.2.2.4.4.6-1.1.8-2.6 1.8-3.8 2.7-.6-.7-1.2-1.4-1.7-2.1l-1.8-2.1c1.9-1.4 3.4-2.4 4.3-3zM416.7 184l.5 1.1c-.4.3-.9.7-1.3 1-22.7 16.4-61.2 13.7-98.4 11l-34.1-3.1c-.1-11.2-5.4-24.8-10.6-32.2 10.6-2.4 20.5-8.3 28-16.9l4-4.6 5.4 2.7-2.1 6.1h-.1c-1.1 0-2.2.4-3.1 1.1-.8.8-1.3 1.8-1.4 3 0 1.1.4 2.2 1.1 3.1.8.8 1.8 1.3 3 1.4h.2c1.1 0 2.1-.4 2.9-1.1.8-.8 1.3-1.8 1.4-3 0-.6-.4-1-1-1-.5 0-1 .4-1 1s-.3 1.2-.7 1.6c-.4.4-1 .6-1.6.6-.6 0-1.2-.3-1.6-.7s-.6-1-.6-1.6c0-.6.3-1.2.7-1.6.3-.3.7-.5 1.2-.6l-.6 1.7c-.2.5.1 1.1.6 1.3.1 0 .2.1.3.1.4 0 .8-.3.9-.7l3.3-9.6 10.9 5.3-1.8 5.4c-1.1-.1-2.2.4-3.1 1.1-.8.8-1.3 1.8-1.4 3 0 1.1.4 2.2 1.1 3.1.8.8 1.8 1.3 3 1.4h.2c2.3 0 4.1-1.8 4.2-4.1 0-.6-.4-1-1-1-.5 0-1 .4-1 1-.1 1.2-1.1 2.2-2.3 2.2-.6 0-1.2-.3-1.6-.7s-.6-1-.6-1.6c0-.6.3-1.2.7-1.6.3-.3.7-.4 1-.5l-.5 1.4c-.2.5.1 1.1.6 1.3.1 0 .2.1.3.1.4 0 .8-.3.9-.7l2.9-8.6 11 5.4-1.6 4.6h-.1c-1.1 0-2.2.4-3.1 1.1-.8.8-1.3 1.8-1.4 3-.1 2.3 1.7 4.3 4.1 4.4h.2c1.1 0 2.1-.4 2.9-1.1.8-.8 1.3-1.8 1.4-3 0-.6-.4-1-1-1s-1 .4-1 1-.3 1.2-.7 1.6c-.4.4-1 .6-1.6.6-1.2-.1-2.2-1.1-2.2-2.3 0-.6.3-1.2.7-1.6.3-.3.7-.5 1.1-.6l-.4 1.2c-.2.5.1 1.1.6 1.3.1 0 .2.1.3.1.4 0 .8-.3.9-.7l2.7-7.6.2.1 1.6.8c6.3 3.1 13.2 4.7 20.2 4.7 3.5 0 7-.4 10.5-1.2.2 0 .3-.1.5-.3l38 15.5c3.8.8 6.7 3.7 8.4 7.4zm-65.8-31.4h.1l16.3 6.7c-9.2 1.7-18.7.4-27.2-3.7l-1.6-.8-.5-.2 2.7-7.5 10.2 5.5zM339 146l-2.7 7.6-10.9-5.3-.1-.1 2.8-8.2 10.9 6zm-12.6-7l-2.8 8.3-10.7-5.2-.2-.1 3-8.9 10.7 5.9zm-44.6-8.8c-.4-3.3 1-6.4 3.7-8.2 2.8-1.8 6.2-1.9 9.3-.4-.1.2-.1.3-.2.5-.1.3-.3.6-.4.9l-.3.6c-1.8 3.5-3.9 6.8-6.5 9.8-1.5 1.8-3.1 3.4-4.7 4.8l-.9-8zm-56 1.7V131.6c.1-.4.2-.7.4-.7.6-.2 2.2.6 3.5 2.4 3.3 4.5 7.3 8.1 11.9 10.8 5.8 3.5 12.3 5.2 19.1 5.2 10.3 0 20.3-5.2 28.2-14.5 2.7-3.1 4.9-6.6 6.8-10.3.1-.2.2-.3.2-.5.2-.4.3-.7.5-1 .1-.1.1-.2.2-.3l17.3 9.5-3.1 9-5.9-2.9c-.4-.2-.9-.1-1.2.2l-4.5 5.2c-9.2 10.5-22.1 16.8-35.3 17.4h-2.2c-14.3 0-28.3-5.6-35.9-14.4V132s-.1-.1 0-.1zm0 17.7c8.2 8.2 21.9 13.4 35.9 13.4h2.3c2.3-.1 4.5-.4 6.7-.8 0 .1.1.2.1.3 5 7 10.3 20.2 10.5 31.2l-55.5-5v-39.1zm-6.7 57.5c-.6 0-1-.4-1.2-.7-.6-.7-.8-1.8-.5-2.9l1.7-11.5c.2-1 .9-1.8 1.6-1.8h.1l94 8.6 2.6.2c1.5.1 3 .2 4.6.3.4 0 .7.1 1.1.1l9.6.6c.4 0 .7 0 1.1.1 3.2.2 6.3.4 9.5.5h1.1l9.3.3h1.1c2.8 0 5.7.1 8.5 0h1.1c.9 0 1.8 0 2.7-.1h1.3c.9 0 1.8-.1 2.7-.1.4 0 .8 0 1.1-.1 2.5-.1 4.9-.3 7.3-.6.4 0 .7-.1 1.1-.1.9-.1 1.7-.2 2.5-.3.4-.1.8-.1 1.2-.2.8-.1 1.7-.2 2.5-.4.4-.1.7-.1 1.1-.2 2.3-.4 4.5-.9 6.7-1.4.3-.1.7-.2 1-.3.8-.2 1.5-.4 2.3-.6.4-.1.7-.2 1.1-.3.7-.2 1.5-.5 2.2-.7.3-.1.6-.2 1-.3 2-.7 4-1.5 5.9-2.4.3-.1.6-.3.9-.4.7-.3 1.3-.7 2-1 .3-.2.6-.3 1-.5.6-.4 1.3-.7 1.9-1.1.3-.2.6-.3.8-.5.9-.6 1.7-1.1 2.6-1.7l1.2-.9.1-.1c-.2.2-.3.5-.5.7-7.2 11-24.3 17.3-52.3 19.3-12.8.9-26.5 1.5-40.3 1.8h-65.7c-17.5-.2-31.8-.8-40.7-1.3zm-9.4 5.7c0-1.2 1-2.2 2.2-2.2h47.6c10.4.2 21.9.4 33.8.4 10.4 0 21.2-.1 31.8-.4h92.7c1.2 0 2.2 1 2.2 2.2v52.6c-8.3 5.3-20.5 12.5-32.6 17.2-17.6 6.8-30 1.8-40.1-3.4-2.2-9.1-10.9-13.8-11.3-14-.4-.2-.9-.1-1.2.2l-6.5 6.8s0 .1-.1.1c-2.8.3-5.5 1.6-8.1 4.5l-1.3-1.3c-.4-.4-1-.4-1.4 0-.4.4-.4 1 0 1.4l1.3 1.3c-2.4 2.6-4.7 5.1-6.8 7.3l-1.5-1.5c-.4-.4-1-.4-1.4 0-.4.4-.4 1 0 1.4l1.5 1.5c-2 2.1-3.9 4-5.6 5.7l-1.4 1.4-1.4-1.4c-.4-.4-1-.4-1.4 0-.4.4-.4 1 0 1.4l1.4 1.4c-2.7 2.7-4.9 5.1-6.8 7.3l-1.6-1.6c-.4-.4-1-.4-1.4 0-.4.4-.4 1 0 1.4l1.8 1.7c-3.3 4.5-4.7 8.6-3.7 14-4.4 5.8-11.3 10.8-18.4 14.6V314c0-2.3-1.9-4.2-4.2-4.2H205c13.4-1.9 31.5-6 56.9-11.9.3-.1.5-.2.6-.5.1-.2.2-.5.1-.8l-1.1-4.3c-.1-.5-.7-.9-1.2-.7-.1 0-.1.1-.2.1-.5.1-1 .2-1.4.4.1-1.5.2-8.9-5.4-15.3-4.9-5.7-12.7-8.8-23.3-9.3-8.2-.4-14.7-1.1-20.5-6.1.1-.2.2-.4.2-.6v-48zm-59.6-34.6c1.1 16.7 4.5 31.3 7.2 43.1.8 3.6 1.6 7.1 2.3 10.2 1 4.7-.5 8.6-4.1 10.8-5.9 3.5-18.1 2.3-34.9-11.7-8.3-7-7.8-12.2-6.3-27.8.5-4.6 1-10.3 1.4-17.1.2-3.7.1-6.8-.5-9.5 22.4-1.7 32.3 1 34.9 2zm-59.9 22c5-10.5 4.3-27.8 4-32.4h3.5c4.8-.1 9.8-.2 12.9 3.1 2.6 2.7 3.6 7.5 3.2 14.7-.4 6.8-1 12.4-1.4 17-1.6 15.9-2.2 21.9 7 29.5 11.5 9.6 27.3 17.8 37.2 11.9 4.3-2.5 6.1-7.4 5-12.9-.7-3.2-1.4-6.7-2.3-10.3-2.7-11.7-6-26.3-7.1-42.8-.9-13.1 5.7-14.5 15.8-16.6 2.5-.5 5.2-1.1 7.9-1.9 1 6 5.9 34.6 10.7 53.7 13.3 52.6 24 55.5 43.4 56.4 9.9.5 17.3 3.4 21.8 8.6 5.5 6.3 4.9 14 4.9 14.1 0 .1 0 .3.1.4-76.4 19.4-80.5 14.4-99.1-8.6-2.3-2.9-5-6.1-8-9.6C123.3 244 92 239.6 86.4 239c-4.9-10-1.8-27 3.8-38.8zM86.6 240c3 .3 12.1 1.7 23.6 6.6H87.6l-1-6.6zm2.3 15.9h4c.3 0 .5-.2.5-.5s-.2-.5-.5-.5h-4.2l-1.1-7.3h24.7c5.4 2.5 11.2 5.7 17.2 9.9-.1.2-.2.4-.2.6v5H90l-1.1-7.2zm2.4 16.5H109c.3 0 .5-.2.5-.5s-.2-.5-.5-.5H91.2l-1.1-7.3h39.2v7.3h-14.8c-.3 0-.5.2-.5.5s.2.5.5.5h14.8v7.3h-37l-1-7.3zm2.5 16.5h29.5c.3 0 .5-.2.5-.5s-.2-.5-.5-.5H93.6l-1.1-7.3h36.8v15.5H94.8l-1-7.2zm8.4 15.5H96l-1.1-7.3h34.4v7.3h-20.7c-.3 0-.5.2-.5.5s.2.5.5.5h20.7v4.3H96.8l-.6-4.3h6c.3 0 .5-.2.5-.5s-.3-.5-.5-.5zm29.2-39.6c3.3 2.8 11.4 10.2 20.4 22 9.8 12.9 16.2 20.3 26.7 23.1h-47.1v-45.1zm-65.2 47.1h8.4c3.7 5.4 1.5 11.7-.7 17.7-1.2 3.2-2.4 6.5-2.6 9.6-.8 10.1 7 22.1 15.1 27.7 3.6 2.5 7.6 3 11.5 3.5 4.5.6 8.7 1.1 11.9 4.6 1.9 2.1 3 5.5 4.2 9.1 1.5 4.5 3 9.3 6.5 11.9h-11.6c.2-5.8-2.9-11.9-8-15.4-2.9-2-6-2.2-9-2.3-2.5-.1-4.9-.2-7-1.5-3.4-1.9-4.7-4.8-6.2-7.8-.8-1.7-1.6-3.4-2.8-5.1-1.1-1.5-2.8-3.2-4.5-4.9-2.9-2.8-6-5.9-7.3-9.2v-35.6c-.1-1.4.9-2.3 2.1-2.3zm34.1 84c-2.1-7.4-6.5-8.2-11.3-9.1-2.8-.5-5.7-1-8.4-2.8-2.8-1.9-4.3-4.5-5.8-7-2.3-3.9-4.4-7.5-10.9-7.6V352c1.6 2.8 4.2 5.3 6.6 7.6 1.7 1.7 3.3 3.3 4.4 4.7 1.2 1.6 2 3.3 2.7 4.9 1.5 3.2 2.9 6.1 6.6 8.2 2.3 1.3 4.9 1.5 7.5 1.6 2.9.1 5.8.3 8.5 2.2 4.8 3.3 7.7 9.1 7.5 14.6h-7.4zM64 370.5c6 .1 7.9 3.3 10.1 7.1 1.5 2.6 3.1 5.2 6.1 7.3 2.9 2 5.9 2.5 8.7 3 4.5.8 8.5 1.5 10.4 8.1H64v-25.5zm169.4 25.4h-48.3c1.1-4.7-1.8-8.3-4.6-11.8-3.3-4.1-6.5-8.1-3.1-13.4 1.5-2.3 4.3-3.1 7-3.8 1.9-.5 3.9-1.1 5.4-2.2 4.6-3.3 5.3-5.9 6.3-9.3.5-1.7 1.1-3.7 2.3-6.1 5.7-11.3 16.5-15.5 24.2-13.8 2.2.5 3.9 1.5 5.7 2.6 2.5 1.5 5.1 3.1 9.1 3.1h.1c2.4 0 4.7-.6 6.9-1.2 3.8-1 7.4-1.9 11.2-.1-.9.3-1.7.5-2.5.8-14.8 4.2-62.2 19.3-58.6 38.5h-.6c-.3-.2-.4-.3-.5-.3-.4-.4-1-.4-1.4 0-.4.4-.4 1 0 1.4.3.3 7.1 6.3 39.6 6.3 3.3 0 6.9-.1 10.7-.2 16.7-.6 31.4-2.2 43.9-4.3L233.8 396c-.1-.1-.3-.1-.4-.1zm226.7 9H207.7l35.4-9.3c.1.2.2.3.4.3h216.6v9zm0-44.5h-31.8c-.3 0-.5.2-.5.5s.2.5.5.5h31.8v10.5h-57.4c-.3 0-.5.2-.5.5s.2.5.5.5h57.4v10.5h-20.3c-.3 0-.5.2-.5.5s.2.5.5.5h20.3v10.5H245.9l40.1-10.5h145.4c.3 0 .5-.2.5-.5s-.2-.5-.5-.5H289.9l40.7-10.6c.1.1.2.1.3.1h61.6c.3 0 .5-.2.5-.5s-.2-.5-.5-.5h-58.6l40.5-10.6c.1.1.2.1.3.1h44.1c.3 0 .5-.2.5-.5s-.2-.5-.5-.5h-40.9l40.1-10.5h42.1v10.5zm0-11.5h-38.3l35.5-9.3c.7-.2 1.4 0 1.9.4s.9 1.1.9 1.7v7.2zm-72 5.9l-3.3-12.6c3.3-1.2 8.1-2.5 14-4.2 14.6-4.1 36.6-10.3 57.7-20.6l1.8 7-24.7 6.4c-.3.1-.4.3-.4.6.1.2.3.4.5.4h.1l24.7-6.4 1.5 5.7-57.1 14.9c-.3.1-.4.3-.4.6.1.2.3.4.5.4h.1l57.1-14.9 1 3.8-73.1 18.9z"/><path d="M392.7 318.1c0 .3.2.4.5.4h.1c.3 0 .5-.3.4-.6-1.6-12.3 6.9-16.5 22.4-24.2 1.2-.6 2.5-1.2 3.8-1.9.2-.1.3-.4.2-.7-.1-.2-.4-.3-.7-.2-1.3.7-2.6 1.3-3.8 1.9-15.8 7.9-24.6 12.3-22.9 25.3zm-85.3 12c.1 0 .2 0 .2-.1 19.9-10.9 37-16.6 51-16.8.3 0 .5-.2.5-.5s-.2-.5-.5-.5c-14.1.2-31.5 5.9-51.5 16.9-.2.1-.3.4-.2.7.2.2.3.3.5.3zm32.5-40c2.6-.8 5.5-.6 8 .4 2.3 1 12.3 4.8 23.2 4.8 3.1 0 6.3-.3 9.4-1.1 4.9-1.2 10.1-3 15.5-5.4.3-.1.4-.4.3-.7-.1-.3-.4-.4-.7-.3-5.4 2.3-10.5 4.1-15.3 5.3-13.8 3.4-29.1-2.4-32.1-3.6-2.7-1.1-5.8-1.3-8.7-.4-.3.1-.4.4-.3.6.2.4.5.5.7.4zm-21 16.8c.1 0 .2 0 .3-.1l16-14.1c.3-.3.6-.5 1-.8.2-.2.3-.5.1-.7-.2-.2-.5-.3-.7-.1-.4.3-.7.5-1.1.8l-16 14.1c-.2.2-.2.5 0 .7.1.1.3.2.4.2zm-5.8 14.1l.6 1.5c.1.2.3.3.5.3h.2c.3-.1.4-.4.3-.7l-.6-1.5c-1.7-4-.6-8.7 2.7-11.6.2-.2.2-.5 0-.7-.2-.2-.5-.2-.7 0-3.7 3.2-4.9 8.3-3 12.7zm-59.2 36.9c.4-.1.5-.3.5-.6-.7-3.5-1.2-6.9-1.5-9.7 0-.3-.3-.5-.5-.4-.3 0-.5.3-.4.5.3 2.8.8 6.2 1.5 9.7-.1.3.1.5.4.5zm4.5 5.7c1.3 0 1.3-2 0-2s-1.3 2 0 2zm-2.2-13.2c1.3 0 1.3-2 0-2s-1.3 2 0 2zm5.4 24.7c1.3 0 1.3-2 0-2s-1.3 2 0 2zm43.7-40.4c1.3 0 1.3-2 0-2s-1.3 2 0 2z"/><path d="M317.4 326.4c-1.3 0-1.3 2 0 2s1.3-2 0-2zm11.7-5.3c-1.3 0-1.3 2 0 2s1.3-2 0-2zm13.8-4.5c-1.3 0-1.3 2 0 2s1.3-2 0-2zm15.5-2c-1.3 0-1.3 2 0 2s1.3-2 0-2zm14.7 4.3c1.3 0 1.3-2 0-2s-1.3 2 0 2zm12 8.2c1.3 0 1.3-2 0-2s-1.3 2 0 2zm12.5-4c-1.3 0-1.3 2 0 2s1.3-2 0-2zm-1.7-10.7c-1.3 0-1.3 2 0 2s1.3-2 0-2zm6.5-9.3c-1.3 0-1.3 2 0 2s1.3-2 0-2zm11-6.5c-1.3 0-1.3 2 0 2s1.3-2 0-2zm12.2-4.2c1.3 0 1.3-2 0-2s-1.3 2 0 2zm6.8-11.5c1.3 0 1.3-2 0-2s-1.3 2 0 2zm-7.3-12.3c-1.3 0-1.3 2 0 2s1.3-2 0-2zm-14 9.3c1.3 0 1.3-2 0-2s-1.3 2 0 2zm-14.5 7.2c1.3 0 1.3-2 0-2s-1.3 2 0 2zm-15.5 5.5c1.3 0 1.3-2 0-2s-1.3 2 0 2zm-15.5 1.3c1.3 0 1.3-2 0-2s-1.3 2 0 2zm-16.2-4c1.3 0 1.3-2 0-2s-1.3 2 0 2zm-17 3.2c1.3 0 1.3-2 0-2s-1.3 2 0 2zm-9.5 8.8c1.3 0 1.3-2 0-2s-1.3 2 0 2zm-9.8 8.5c1.3 0 1.3-2 0-2s-1.3 2 0 2z"/></svg>