<svg xmlns="http://www.w3.org/2000/svg" viewBox="0 0 525.5 525.5"><path d="M151.9 163c-8.4-2.4-20.5-1-24.3.4-3 1.1-8.5 4-10.7 10.4-2.2 6.4.3 16.2 6.2 24.5 3.9 5.4 11.2 8.3 18.8 8.3 5 0 10.1-1.2 14.4-3.8 11.5-6.8 11.4-24.1 10.5-27.2-.9-3.3-6.6-10.2-14.9-12.6zm3.9 38.9c-10.4 6.2-25.9 4.1-31.9-4.2-5.2-7.2-7.6-15.6-6.6-21.6.1.2.3.5.6.5l34.7 10.7v.2c0 .4.3.8.7 1l5.1 1.5c.3.3 1.2 1.6 1.8 2.7l.7 1.2c.2.3.5.5.8.5h.1c.4 0 .7-.2.8-.6l1.2-2.6c.2-.4.1-.8-.2-1.1-1.8-1.9-2.7-2.6-3.4-2.9-1.6-.6-6.3-2.1-6.5-2.2-.3-.1-.6 0-.9.1-.1 0-.1.1-.2.2l-34.4-10.6c-.3-.1-.7 0-.9.2.1-.3.1-.5.2-.8 2-5.7 6.6-8.5 10.1-9.8 2.3-.8 7.5-1.7 13.1-1.7 3.6 0 7.4.3 10.6 1.3 8.3 2.4 13.6 9.5 14.3 11.9 1.1 3.1 1.2 19.6-9.8 26.1zm5.3-11.7l.8.8-.1.3c-.3-.4-.5-.7-.7-1.1zm-52.2-18.7c-.7-.7-1.8-.6-2.5.1-.3.3-.5.8-.5 1.3s.2.9.5 1.2c.3.3.8.5 1.2.5.5 0 .9-.2 1.3-.5.7-.8.7-2 0-2.6zm-1.4 1.1s.1-.1.2-.1.1 0 .2.1l-.3.3c-.2-.1-.2-.2-.1-.3zm.3.3c-.1.1-.2.1-.3 0l.3-.3s.1.1.1.2c0 0 0 .1-.1.1zM239 198.4c6-8.3 8.5-18.2 6.3-24.7s-7.7-9.4-10.8-10.5c-3.9-1.4-16-2.9-24.5-.4-8.3 2.4-14.2 9.4-15.1 12.7-.9 3.2-1 20.6 10.6 27.5 4.4 2.6 9.5 3.9 14.5 3.9 7.8-.1 15.2-3 19-8.5zm-43.1-22.7c.7-2.4 6-9.6 14.4-12 8.3-2.4 20.2-1 23.9.4 3.6 1.3 8.2 4.1 10.2 9.9.1.2.1.5.2.7-.3-.2-.6-.3-.9-.2L209 185.4l-.2-.2c-.3-.2-.6-.2-.9-.1-.2.1-4.9 1.6-6.4 2.2-.6.2-1.5.9-4 3.5-2.3-6.5-2.1-13.2-1.6-15.1zm4.3 15.1c-.2.3-.5.7-.8 1.1l-.1-.2.9-.9zm5.8 11.3c-3-1.8-5.2-4.4-6.8-7.2h.2c.3 0 .7-.2.9-.5 2.1-3.3 2.8-4.2 3.1-4.4l5.1-1.6c.4-.1.7-.5.7-1v-.2l35.1-10.9c.3-.1.5-.3.6-.5 1.1 6.1-1.5 14.5-6.7 21.8-6 8.7-21.7 10.7-32.2 4.5zm48.3-27.6c.4 0 .9-.2 1.2-.5.7-.7.7-1.8.1-2.5-.3-.3-.8-.5-1.2-.5-.5 0-.9.2-1.3.5-.7.7-.7 1.8 0 2.5.3.3.8.5 1.2.5zm.2-1.9c.1.1.1.2 0 .3l-.3-.3c.1-.1.2-.1.3 0zm-.3 0l.3.3s-.1.1-.2.1-.1 0-.2-.1c0-.1 0-.2.1-.3zm-86.1 1.9c0 .8.7 1.5 1.5 1.5s1.5-.7 1.5-1.5-.7-1.5-1.5-1.5-1.5.7-1.5 1.5zm1.5-.6c.3 0 .5.2.5.5s-.2.5-.5.5-.5-.2-.5-.5c-.1-.2.2-.5.5-.5zm22.6-.9c-.8 0-1.5.7-1.5 1.5s.7 1.5 1.5 1.5 1.5-.7 1.5-1.5-.7-1.5-1.5-1.5zm0 2c-.3 0-.5-.2-.5-.5s.2-.5.5-.5.5.2.5.5c.1.3-.2.5-.5.5zm29 140.8c-13.5 0-24.6 11-24.6 24.6s11 24.6 24.6 24.6 24.6-11 24.6-24.6-11.1-24.6-24.6-24.6zm0 1c11.4 0 20.9 8.1 23.1 18.9-.2-.1-.3-.1-.5-.1l-45.6 1.6c-.1 0-.3 0-.4.1 1.5-11.5 11.4-20.5 23.4-20.5zm-23.6 23.6c.2.1.4.3.6.3l8.1.3c6.3.2 12.4 1.7 18 4.2 4.8 2.7 8.7 6.8 11.5 12.4.2.3.5.5.9.5-4.1 3.6-9.6 5.9-15.5 5.9-13-.1-23.6-10.6-23.6-23.6zm40.1 16.7c0-.2 0-.3-.1-.5-1.1-2.1-2.4-4.1-3.7-5.8 1.7 1.3 3.3 2.6 4.8 4.1.2.2.4.3.7.3h.1c-.6.7-1.2 1.3-1.8 1.9zm2.6-3c0-.2-.1-.4-.3-.5-8.9-8.8-20.7-14-33.3-14.6l37-1.3c.3 0 .5-.1.7-.3.1 1 .2 2 .2 3.1.1 5-1.5 9.7-4.3 13.6zm-100 10.8c13.5 0 24.6-11 24.6-24.6s-11-24.6-24.6-24.6-24.6 11-24.6 24.6 11 24.6 24.6 24.6zm-18.3-9.7c.4 0 .6-.1.8-.3 1.5-1.5 3.1-2.9 4.8-4.1-1.4 1.7-2.6 3.7-3.7 5.8-.1.2-.1.3-.1.5-.7-.6-1.3-1.2-1.8-1.9zm18.3 8.7c-5.9 0-11.4-2.2-15.5-5.9.3 0 .7-.2.9-.5 2.9-5.6 6.8-9.8 11.6-12.4 5.6-2.5 11.7-4 18-4.2l8.1-.3c.2 0 .5-.1.6-.3-.2 13.1-10.8 23.6-23.7 23.6zm0-47.1c12 0 21.9 9 23.4 20.5-.1-.1-.3-.1-.4-.1l-45.6-1.6c-.2 0-.3 0-.5.1 2.1-10.8 11.6-18.9 23.1-18.9zm-23.4 20.5c.2.2.4.3.7.3l37 1.3c-12.5.6-24.3 5.7-33.3 14.6-.2.2-.2.3-.3.5-2.8-3.9-4.4-8.6-4.4-13.7l.3-3zM256 244.8c0-2.6-8.6-2.6-8.6 0 0 1.3 2.2 2 4.3 2s4.3-.7 4.3-2zm-4.3 1c-2.1 0-3.3-.7-3.3-1s1.2-1 3.3-1 3.3.7 3.3 1-1.2 1-3.3 1zm-145.7-1c0 1.3 2.2 2 4.3 2s4.3-.7 4.3-2c0-2.6-8.6-2.6-8.6 0zm4.3 1c-2.1 0-3.3-.7-3.3-1s1.2-1 3.3-1 3.3.7 3.3 1-1.2 1-3.3 1zm128.6-3.9c-4.8-1.2-21.7-4.5-40.8 3.3-3.4 1.4-5.7 4.8-5.5 8.5.6 13.6 4.2 31.6 29.2 31.6 7.8 0 13.9-2.3 18.1-6.9 6.8-7.3 7.6-18.5 7.1-26.7-.2-4.7-3.5-8.6-8.1-9.8zm5.7 7.1c-2.2.2-10.2 1.1-21.7 2-5.5.4-12.5 1-20.4 1.4h-.7c-2.2.1-4.6.2-6.9.3-.6 0-1 .5-1 1s.5 1 1 1c2.6-.1 5.2-.2 7.6-.3 17.5.1 25.2 11.3 32 21.2a27644768299299944 27644768299299944 0 0 0 3.7 1.8l-2.1-3c-5.4-7.8-11.8-17.2-23.7-20.7 3.8-.3 7.2-.5 10.2-.8 6.2 3.5 12.7 8.7 20 16.1.2.2.5.3.7.3.3 0 .5-.1.7-.3.1-.1.1-.2.2-.3-1.1 3.2-2.6 6.3-5 8.9-4.1 4.3-9.9 6.5-17.4 6.5-24.2 0-27.7-17.5-28.2-30.6-.1-3.3 1.8-6.3 4.9-7.6 9.4-3.8 18.3-4.9 25.4-4.9 7.1 0 12.4 1.1 14.8 1.7 4.2 1 7.2 4.6 7.4 9 .3 4.2.2 10.7-1.7 16.8.1-.3 0-.6-.3-.9-6.5-6.5-12.4-11.4-18-15 9.8-.8 16.7-1.6 18.7-1.8.5-.1.9-.6.9-1.1 0-.4-.6-.7-1.1-.7zm-80.6-3.8c-19-7.7-36-4.5-40.8-3.3-4.6 1.1-7.9 5.1-8.2 9.9-.5 8.2.3 19.4 7.1 26.7 4.3 4.6 10.4 6.9 18.1 6.9 25.1 0 28.7-18 29.2-31.6.3-3.8-1.9-7.2-5.4-8.6zm-47.9 6.6c.3-4.3 3.3-7.9 7.4-9 4.6-1.2 21.1-4.3 39.6 3-4.4.5-8.2.8-12.7 1.2-3.4.3-7.2 1.6-11.4 3.9-11.4-.9-19.3-1.8-21.5-2-.5-.1-1 .3-1.1.9s.3 1 .9 1.1c2 .2 8.8 1 18.7 1.8-5.7 3.6-11.6 8.5-18.1 15.1-.2.2-.3.5-.3.8-1.7-6-1.8-12.5-1.5-16.8zm24.2 32.5c-6.4 0-11.7-1.6-15.6-4.9.3 0 .5-.2.7-.4.7-1 1.5-2.1 2.2-3.2 7-10.2 15-21.7 34-21 2.1.1 3.9.1 5.9.2.5 0 .9-.3 1-.8-.6 13.2-4.3 30.1-28.2 30.1zm28.2-30.3c-.1-.5-.5-.9-1-.9-2 0-3.7-.1-5.9-.2-20.1-.8-28.8 11.8-35.7 21.8-.8 1.1-1.5 2.2-2.2 3.2-.1.2-.2.3-.2.5-.2-.2-.5-.4-.7-.6-2.4-2.5-3.9-5.6-5-8.8 0 .1.1.2.1.2.2.2.4.3.7.3.3 0 .5-.1.7-.3 7.3-7.5 14-12.8 20.3-16.3 4-2.2 7.7-3.5 10.8-3.8 4.7-.4 8.7-.8 13.4-1.3.5-.1.9-.5.9-1.1 2.3 1.5 3.8 4.1 3.6 6.9.2.2.2.3.2.4z"/><path d="M293.1 381.7h-8.8l-6.8-246.4c0-.5-.5-1-1-1H85.1c-.5 0-1 .4-1 1l-6.8 246.4h-8.8c-2.6 0-4.8 2.1-4.8 4.8 0 2.6 2.1 4.8 4.8 4.8h224.6c2.6 0 4.8-2.1 4.8-4.8 0-2.6-2.2-4.8-4.8-4.8zm-207-245.4h189.4l6.8 245.4h-203l6.8-245.4zm207 253H68.5c-1.5 0-2.8-1.2-2.8-2.8 0-1.5 1.2-2.8 2.8-2.8h224.6c1.5 0 2.8 1.2 2.8 2.8 0 1.5-1.3 2.8-2.8 2.8z"/><path d="M273 302.6H89.7c-.5 0-1 .4-1 1l-1.1 67.6c0 .3.1.5.3.7s.4.3.7.3h185.6c.3 0 .5-.1.7-.3.2-.2.3-.5.3-.7l-1.1-67.6c-.1-.6-.5-1-1.1-1zm-162.6 42h-1.6V336h1.6c-.2 1.4-.3 2.8-.3 4.3s.1 2.9.3 4.3zm1.7-4.2c0-15.6 12.7-28.4 28.4-28.4 15.6 0 28.4 12.7 28.4 28.4s-12.7 28.4-28.4 28.4c-15.7-.1-28.4-12.8-28.4-28.4zm139.1-4.3h1.6v8.6h-1.6c.2-1.4.3-2.8.3-4.3s-.1-2.9-.3-4.3zm-1.7 4.3c0 15.6-12.7 28.4-28.4 28.4-15.6 0-28.4-12.7-28.4-28.4s12.7-28.4 28.4-28.4 28.4 12.7 28.4 28.4zm-10.9 24.8c.3.7.5 1.3.7 1.7.2.5.4.9.5 1.3.2.7.7 1.4 1.2 1.9h-13.9c4.2-.8 8.1-2.5 11.5-4.9zm8 3c-.5.9-1.4 1.3-2.4 1.3-1.1 0-2.1-.8-2.5-1.9-.2-.6-.4-1-.6-1.5-.3-.5-.5-1.2-.9-2.1 1.2-1 2.3-2 3.4-3.2 1.1 1.5 2.1 3.1 3.1 4.7.5.8.4 1.8-.1 2.7zm-55.7-30.7l-10.2.4-10.1-.4c0-.5-.1-1-.2-1.4 3.4-3.4 6-5.2 10.3-5.2 4.6 0 7 1.7 10.3 5.4 0 .4 0 .8-.1 1.2zm-20.1 2.9l10-.4 10 .4c0 14.7 10.5 27 24.4 29.8h-68.8c13.9-2.9 24.4-15.1 24.4-29.8zm-49.6 23.4c-.4 1-.7 1.7-.9 2.3l-.6 1.5c-.3 1.1-1.3 1.8-2.5 1.9-1 0-1.9-.5-2.4-1.3s-.5-1.8 0-2.7c.9-1.7 2-3.3 3.1-4.8 1 1.1 2.1 2.1 3.3 3.1zm.3 4.4c.1-.4.3-.8.5-1.3s.5-1 .8-1.8c3.4 2.4 7.3 4.2 11.6 5h-14.1c.6-.5 1-1.2 1.2-1.9zm126.1 1.9c.3-.3.5-.6.7-.9.9-1.5.9-3.2.1-4.7-1-1.8-2.2-3.6-3.5-5.3 2.9-3.6 4.9-7.9 5.9-12.5h2.9c.6 0 1-.4 1-1v-10.6c0-.6-.4-1-1-1h-3c-2.9-13.7-15.1-24.1-29.7-24.1-14.5 0-26.6 10.2-29.6 23.8-2.7-2.8-5.6-4.9-10.7-4.9-4.9 0-8 2.2-10.7 4.8-3-13.5-15.2-23.7-29.6-23.7-14.6 0-26.8 10.3-29.7 24.1h-3c-.6 0-1 .4-1 1v10.6c0 .6.4 1 1 1h3c1 4.6 3 8.8 5.8 12.4-1.3 1.7-2.5 3.6-3.6 5.4-.8 1.5-.8 3.2.1 4.7.2.3.5.7.7.9H89.6l1.1-65.6h181.4l1.1 65.6h-25.6zm-156.8-79h179.9c.3 0 .5-.1.7-.3.2-.2.3-.4.3-.7l-1.1-66.4c0-.5-.5-1-1-1H91.9c-.5 0-1 .4-1 1L89.8 290c0 .3.1.5.3.7.2.3.5.4.7.4zm150.3-6.6c1.5 1.7 3.3 3.4 5.5 4.6h-13.3c3-1.1 5.6-2.7 7.8-4.6zm14.5 3.4c-5 1.5-8.8.1-13.1-4.8 2.3-2.4 4.2-5.3 5.6-8.2 4.5 4.9 7.9 9.1 9.6 11.2l.8-.6-.8.8-.3.3c.1-.1-.5.9-1.8 1.3zm-32 .7c-25.8 0-30.4-13.8-33.7-23.8-1.9-5.8-3.6-10.8-8.9-10.8-5.2 0-6.9 5-8.8 10.8-3.4 10.1-8 23.9-33.8 23.9-20.8 0-25.3-19.2-28.2-31.9-.2-1-.5-2-.7-2.9-.5-1.9-1.7-3.4-3.3-3.9l-1-.4-2-8.5c36.8-4.9 56.5 0 68.4 2.9 4.1 1 7.1 1.8 9.5 1.8s5.4-.7 9.5-1.8c11.8-2.9 31.6-7.8 68.4-2.9l-2 8.5-1 .4c-1.6.6-2.8 2-3.3 3.9-.2.9-.4 1.9-.7 2.9-3.1 12.6-7.6 31.8-28.4 31.8zm-13.4.5h-58.4c15.7-4.1 19.5-15.6 22.3-23.7 2-6 3.3-9.4 6.9-9.4 3.7 0 5 3.4 7 9.5 2.7 8 6.5 19.4 22.2 23.6zm-90.6-5.8c-4.2 4.8-8 6.1-12.9 4.6-1.2-.4-1.8-1.4-1.8-1.4-.1-.1-.2-.4-.3-.4 1.7-2.1 5-6.2 9.4-10.9 1.4 2.9 3.3 5.7 5.6 8.1zm1.5 1.4c2.1 1.8 4.6 3.4 7.5 4.4h-12.9c2.2-1.2 3.9-2.8 5.4-4.4zm-28.2-60.1h175.8l1 64.4h-12c.7-.5 1.2-1.1 1.4-1.4.4-.3.6-.8.7-1.3.1-.6-.1-1.1-.4-1.6-1.8-2.3-5.5-6.8-10.3-12 2.4-5.4 3.7-11.1 4.8-15.7.2-1 .5-2 .7-2.9.2-.7.7-2.1 2-2.5l1.5-.5c.3-.1.6-.4.6-.7l2.3-10.1c.1-.3 0-.6-.2-.8-.2-.2-.4-.4-.7-.4-37.8-5.2-58.1-.2-70.2 2.8-4 1-6.8 1.7-9 1.7s-5-.7-9-1.7c-12.1-3-32.4-8-70.2-2.8-.3 0-.5.2-.7.4s-.2.5-.2.8l2.3 10.1c.1.3.3.6.6.7l1.5.5c1.3.5 1.8 1.8 2 2.5.2.9.4 1.9.7 2.9 1.1 4.7 2.5 10.5 4.9 16-4.7 5.1-8.3 9.5-10 11.6-.4.4-.5 1-.4 1.6.1.5.3 1 .7 1.3.2.3.7.9 1.4 1.4H91.8l1.1-64.3zm-.4-12.2h177c.3 0 .5-.1.7-.3s.3-.5.3-.7l-2.1-66.4c0-.5-.5-1-1-1H94.6c-.5 0-1 .4-1 1l-2.1 66.4c0 .3.1.5.3.7.2.2.5.3.7.3zm79.8-40c.1 2.9.3 15.7-6.6 25.7-7.5 10.9-15.5 11.8-22.4 11.8-9.8 0-22.8-3.4-28.8-19.3-5.5-14.6-6-15.2-8.5-15.7-.2 0-.5-.1-.7-.2v-4.5c1.7-.2 5.4-.6 7.3-1.7.4-.2 1-.7 1.7-1.2 3.5-2.5 10.7-7.8 20-8.4 11.2-.7 18.7.3 24.3 3.2 4 2.1 6.9 5 8.7 6.9.8.8 1.3 1.4 1.8 1.7 1.1.8 2.4 1.4 3.2 1.7zm-5 26.9c.3-.5.6-1 .9-1.4 2.1 2.4 3.9 4.5 4.4 5.2.7 1 .8 3.2.2 4.1-.2.2-.3.3-.4.3-1-.6-4.1-5.7-5.3-7.8.1-.2.2-.3.2-.4zm-1.5 2.1c3.7 6.1 5.1 7.9 6.3 8h.4c.8 0 1.6-.4 2.1-1.2 1-1.6.9-4.6-.2-6.3-.6-.9-2.9-3.6-5-5.9 6-11.2 5-23.8 4.9-24.4 0-.4-.3-.7-.7-.9 0 0-.7-.2-1.5-.6v-1.4c1.3-.5 4.8-1.8 8.9-1.8s7.6 1.2 8.9 1.8v1.4c-.8.4-1.5.6-1.5.6-.3.1-.6.4-.7.8v.3c-.1 1.5-.7 13.5 4.9 24.1-2.1 2.3-4.4 5.1-5.1 6-1.1 1.7-1.2 4.7-.2 6.3.5.8 1.2 1.2 2.1 1.2h.4c1.2-.2 2.6-2 6.3-8.1 3.9 5 7.9 7.7 11.8 9.1H154c4-1.4 7.9-4.1 11.8-9zm52.9 8.6c-6.9 0-14.9-.9-22.4-11.8-6.9-10-6.7-22.9-6.6-25.7.7-.3 2-.9 3.1-1.7.5-.4 1-.9 1.8-1.7 1.9-1.9 4.7-4.8 8.7-6.9 5.7-3 13.2-4 24.3-3.2 9.3.6 16.5 5.9 20 8.4.7.5 1.3.9 1.7 1.2 1.9 1.1 5.6 1.6 7.3 1.7v4.5c-.3.1-.5.1-.7.2-2.5.5-3 1.1-8.5 15.7-2.7 7.1-7 12.3-12.7 15.5h-.1c-4.3 2.4-9.4 3.7-15.2 3.8h-.7zm-24-10.7c.1.1.1.2.2.2-1.2 2-4.4 7.3-5.4 7.9-.1 0-.2 0-.4-.3-.6-.9-.5-3.1.2-4.1.4-.7 2.3-2.9 4.4-5.3.3.6.6 1.1 1 1.6zM95.6 146h171l2 64.4h-38.7c2.1-.6 4.1-1.5 5.9-2.5h.1c6.2-3.4 10.7-9 13.6-16.6 5.3-14.1 5.7-14.2 7.1-14.5.3-.1.6-.1 1-.3.2-.1.5-.2.7-.3.4-.2.6-.5.6-.9v-2.7h2.5c.6 0 1-.4 1-1s-.4-1-1-1h-2.5v-1.4c0-.5-.4-1-.9-1-1.5-.1-5.6-.5-7.3-1.5-.3-.2-.9-.6-1.5-1.1-3.6-2.6-11.2-8.2-21-8.8-11.6-.8-19.4.3-25.4 3.5-4.3 2.3-7.3 5.3-9.2 7.3-.5.6-1 1-1.4 1.3v-.8c0-.4-.2-.7-.6-.9-.2-.1-4.6-2.2-10.4-2.2s-10.2 2.1-10.4 2.2c-.3.2-.6.5-.6.9v.8c-.3-.3-.8-.8-1.4-1.3-1.8-1.9-4.9-5-9.2-7.3-6-3.2-13.9-4.2-25.4-3.5-9.8.7-17.4 6.2-21 8.8-.7.5-1.2.9-1.5 1.1-1.7 1-5.9 1.5-7.3 1.5-.5 0-.9.5-.9 1v1.4H101c-.6 0-1 .4-1 1s.4 1 1 1h2.5v2.7c0 .4.2.8.6.9.7.3 1.3.4 1.7.5 1.3.3 1.7.4 7.1 14.5 4.3 11.4 11.9 16.8 19.5 19.1H93.6l2-64.3zm243.8 75.6c.1 0 .2 0 .3-.1l10.9-10.4c.2-.2.2-.5 0-.7-.2-.2-.5-.2-.7 0L339 220.7c-.2.2-.2.5 0 .7.1.1.2.2.4.2zm20.8-13.1l-23.6 23c-.2.2-.2.5 0 .7.1.1.2.2.4.2.1 0 .3 0 .3-.1l23.6-23c.2-.2.2-.5 0-.7-.2-.3-.5-.3-.7-.1zm76.6-1.7l-23.5 22.7c-.2.2-.2.5 0 .7.1.1.2.2.4.2.1 0 .2 0 .3-.1l23.5-22.7c.2-.2.2-.5 0-.7-.2-.3-.5-.3-.7-.1zm-5.3 13l-8 7.8c-.2.2-.2.5 0 .7.1.1.2.2.4.2.1 0 .3 0 .3-.1l8-7.8c.2-.2.2-.5 0-.7-.2-.3-.5-.3-.7-.1z"/><path d="M464.7 207.3h-2.5v-1.4c0-.5-.4-1-.9-1-1.4-.1-5.5-.5-7.2-1.5-.3-.2-.9-.6-1.5-1.1-2.8-2-7.8-5.7-14.5-7.6v-.4c-9.1-27.8-29.7-45.8-52.5-45.8-23 0-43.7 18.1-52.7 46.2-6.6 1.9-11.6 5.6-14.3 7.6-.7.5-1.2.9-1.5 1.1-1.7 1-5.8 1.4-7.2 1.5-.5 0-.9.5-.9 1v1.4h-2.5c-.6 0-1 .4-1 1s.4 1 1 1h2.5v2.6c0 .4.2.8.6.9.7.3 1.3.4 1.7.5 1.3.3 1.7.3 7 14.3 2.9 7.7 7.3 12.6 12.3 15.7 2.1 9.6 5.7 18.9 10.3 27.2-.1.2-.1.5.2.7.1.1.2.1.4.2 9.5 16.7 22.9 29.4 36.1 33.3v.1c-2 34.4-5.8 55.6-6.3 58.3h-1.7c-2.4 0-4.4 2-4.4 4.4 0 .9.3 1.7.7 2.4H347c-13 0-25.6 4.7-35.3 13.4-1.4 1.3-1.9 3.2-1.2 5 .7 1.8 2.3 2.9 4.3 2.9h141.8c1.9 0 3.6-1.2 4.3-2.9.7-1.8.2-3.8-1.2-5-9.8-8.6-22.3-13.4-35.3-13.4h-18.6c.4-.7.7-1.5.7-2.4 0-2.4-2-4.4-4.4-4.4h-1.7c-.5-2.7-4.3-23.6-6.3-57.6 0-.3-.2-.6-.4-.7 19.9-5.7 40.7-31.9 47.2-61.2v-.4c5.6-3.4 9.7-8.7 12.4-15.7 5.2-13.9 5.6-14 7-14.3.3-.1.6-.1 1-.2.2-.1.5-.2.7-.3.4-.2.6-.5.6-.9v-2.6h2.5c.6 0 1-.4 1-1s-.8-.9-1.4-.9zm-79.2-56.8c21.7 0 41.4 17.1 50.4 43.7-1.3-.3-2.7-.5-4.1-.6-11.4-.8-19.1.3-25.1 3.4-4.3 2.2-7.2 5.2-9.1 7.2l-1.3 1.3v-.8c0-.4-.2-.7-.6-.9-.2-.1-4.5-2.2-10.2-2.2-5.7 0-10 2.1-10.2 2.2-.3.2-.6.5-.6.9v.8l-1.3-1.3c-1.8-1.8-4.8-4.9-9.1-7.2-5.9-3.1-13.7-4.2-25.1-3.4-1.4.1-2.8.3-4.1.6 9-26.6 28.6-43.7 50.4-43.7zM320 226.9c-5.4-14.4-6-15-8.4-15.5-.2 0-.5-.1-.7-.2v-4.4c1.7-.2 5.3-.6 7.2-1.7.4-.2 1-.7 1.7-1.2 3.4-2.5 10.6-7.7 19.7-8.3 11-.7 18.4.3 24 3.2 4 2.1 6.8 4.9 8.6 6.8.8.8 1.3 1.3 1.8 1.7 1.1.8 2.4 1.4 3.1 1.7.1 2.9.3 15.5-6.5 25.4-7.4 10.7-15.2 11.6-22 11.6-9.8 0-22.5-3.3-28.5-19.1zm28.4 21.1c7.3 0 15.8-1 23.7-12.5 8.1-11.7 6.9-26.7 6.8-27.3 0-.4-.3-.7-.7-.9 0 0-.6-.2-1.4-.6v-1.4c1.3-.5 4.7-1.7 8.8-1.7 4.1 0 7.5 1.2 8.8 1.7v1.4c-.8.4-1.4.6-1.4.6-.3.1-.6.4-.7.8v.3c-.1 1.6-.8 16 6.8 27.1 1.2 1.8 2.5 3.3 3.7 4.6-1.8 5.2-5.2 9.9-8.5 14.5-1.4 2-2.7 3.9-4 5.8-1.4 2.2-2.4 4.5-3.4 6.7-1.6 3.7-3.1 7.1-6.4 10-11.4 10-22.9 3.1-33.9-3.7-.9-.6-1.9-1.2-2.9-1.7-4.9-8.4-8.7-17.6-11-27.1 5.3 2.6 10.9 3.4 15.7 3.4zm5.7 38c-3.4-3.8-6.5-8-9.2-12.5.4.2.8.5 1.2.7 6.9 4.2 14.5 8.8 22.1 8.8 4.3 0 8.7-1.5 13-5.2 3.4-3 5-6.6 6.6-10.3 1-2.2 1.9-4.4 3.3-6.6 1.2-1.9 2.5-3.8 3.9-5.7 3.2-4.5 6.5-9.2 8.4-14.4 1.9 1.8 3.8 3.2 5.7 4.2-7.5 7.2-11.4 15.2-15.6 23.7-1.6 3.3-3.3 6.7-5.3 10.2-6.2 10.9-14.2 11-25.4 11.1-1.5 0-3.1 0-4.7.1h-.1c-1.2-1.2-2.6-2.6-3.9-4.1zm79.8-27.7c-2.1 3.4-6 6.3-10.1 9.3-8 5.9-17.1 12.6-13.4 25.1-2.9 2.5-5.8 4.7-8.8 6.4-.1-11.4.5-19 7.7-28.7 3.2-4.3 9-7.8 14.6-11.1 4.7-2.8 9.5-5.6 12.9-9.1-.9 2.8-1.8 5.5-2.9 8.1zm3.5-10.2c-3.3 4-8.8 7.3-14 10.4-5.7 3.4-11.5 6.8-14.9 11.4-7.4 10-8 18.2-7.9 29.6 0 .1 0 .2.1.2-5.1 2.8-10.2 4.4-15.2 4.4-6 0-12.6-2.4-19.1-6.9 4.4-.6 8.2-.5 11.6-.3 8.6.4 14.8.7 19.6-13.4 5.4-15.7 13.2-27 24.6-35.5h1.2c5.5-.1 10.5-1.2 14.8-3.3-.2 1.1-.5 2.2-.8 3.4zm-40.7 35c-4.6 13.3-9.9 13.1-18.6 12.7-3.6-.2-7.7-.4-12.5.4-.1 0-.2.1-.2.1-2.1-1.5-4.2-3.2-6.2-5.1 1.3 0 2.5 0 3.7-.1 11.1-.1 19.8-.2 26.2-11.6 2-3.5 3.7-6.9 5.3-10.2 4.2-8.5 8.2-16.5 15.7-23.7 3.6 1.7 7.2 2.2 10.5 2.3-11 8.6-18.6 19.8-23.9 35.2zm-17.4 22.2c2.1.5 4.2.7 6.2.7.7 0 1.4 0 2.1-.1-9 20.2-10.9 39.5-5.5 57.2H373c.8-3.8 4.4-24.7 6.3-57.8zm17.3 66.7c.1.1.1.1.2.1 13.7 3.6 21 6.7 22.1 9.6.2.6.2 1.1.1 1.6h-7.5c-.1-.1-.2-.3-.3-.5-1.4-1.7-18-7.4-20.7-7.7-2.2-.2-9.4.5-12.8 3.4-1.2 1-1.8 2.2-1.9 3.5 0 .4.2.8.5 1.2h-12.7c-1.1-2.4 1.5-4.6 5.3-7.3 2-1.4 3.7-2.7 4.2-4h23.5zm12.5 17.3c0-.1-.1-.2-.1-.3 0-.5.6-1 1.1-1.5.6-.6 1.4-1.3 1.6-2.2h6.2c-.7 1.2-1.5 2.6-.8 4h-8zm-16.3 0c-1.2-.7-3.4-1.4-6-2.3-1.3-.5-3-1.1-4.7-1.7h28.6c-.2.5-.7.9-1.2 1.5-.7.7-1.4 1.4-1.4 2.2v.3h-15.3zm-10.6 0c-3.4-.7-11-2.6-15.3-4h12.6c1.8.8 4.2 1.7 7 2.7 1.4.5 2.8 1 3.9 1.4h-8.2zm-17.5 0c-3-.6-8.7-2.2-12-4h11.5c2.7 1.3 8.9 2.9 13.5 4h-13zm-17.4 0c-1.1-1.5-1.9-2.8-2.5-4h6.1c2.2 1.7 6.3 3.1 9.7 4h-13.3zm-6.5 0c-3.6-1.4-6-2.7-7.3-4h10.1c.6 1.2 1.3 2.6 2.4 4h-5.2zm-17.2 0c-1-1.6-1.3-2.9-1-4h9.6c1 1.4 2.9 2.7 6 4h-14.6zm2.8-9c1.8-1.6 3.8-3.5 5.3-6.1 2.8-.9 5.6-1.5 8.5-1.9-1.2 1.3-2.4 2.4-3.6 3.6-2.8 2.6-5.3 4.9-5.1 7.3h-7.9c.7-.9 1.7-1.8 2.8-2.9zm-4 3h-7.6c4.6-3.7 9.9-6.6 15.4-8.5-1.4 1.9-3 3.5-4.5 4.8-1.3 1.2-2.5 2.4-3.3 3.7zm21.4-3.1c.6-2.9 4-4.8 8.6-7.3.5-.3 1.1-.6 1.7-.9h8c-2.1 1.4-4.8 4-7.4 6.5-2 1.9-3.9 3.8-5.1 4.5-.1.1-.2.2-.2.3H344c-.3-1.2-.4-2.2-.2-3.1zm32.9 2c.1-1 .6-2 1.6-2.8 3-2.6 9.5-3.5 12.1-3.2 2.5.2 17.7 5.6 19.8 7.1h-32.4c-.7-.4-1.1-.8-1.1-1.1zm-8.5-7.1c-3.1 2.2-6.8 5-5.8 8.1h-11.6c1.2-.9 2.7-2.4 4.5-4.1 3.3-3.2 7.3-7.1 9.2-7.2h7.3c-.5 1-2.1 2.1-3.6 3.2zm-16.1-3.1s-.1 0-.1.1c-4.7 2.6-8.4 4.6-9.1 8-.2 1-.2 2.1.1 3.2h-10.4c-.1-1.9 2.2-4.1 4.8-6.6 1.4-1.3 3-2.8 4.4-4.5 1.7-.2 3.5-.3 5.2-.3h5.1zm-39.8 15.6c-.3-.7-.3-1.6.3-2.4h9c-.2 1.2 0 2.5.9 4h-7.8c-1.4.1-2.1-.8-2.4-1.6zm146.5 0c-.3.8-1.1 1.7-2.4 1.7h-38.1c-.9-1.1-.4-2.1.5-3.6.1-.1.2-.3.3-.5h39.4c.6.9.6 1.8.3 2.4zm-2.5-4.3H420c.1-.6.1-1.3-.2-2-.8-2.1-3.9-4.9-19.6-9.3h24c11.7 0 23 4 32.1 11.3zm-52.1-15.7c0 1.3-1.1 2.4-2.4 2.4h-32.6c-1.3 0-2.4-1.1-2.4-2.4 0-1.3 1.1-2.4 2.4-2.4h32.6c1.3 0 2.4 1.1 2.4 2.4zm-13.8-4.4c-5-8.7-5.1-19.2-4.5-28.4.2-3.5 1.9-7.8 3.6-11.9 1.1-2.7 2.2-5.5 2.9-8.1.2 2.3.3 4.5.5 6.7-.3 3.2-.9 6.2-1.5 9.2-2 9.9-3.8 19.3 6.1 29.4.2 1.5.4 2.5.5 3.1h-7.6zm2.9-37.3c1.4 15.2 2.9 26.2 3.9 32.4-8.4-9.3-6.7-17.7-4.8-27.4.3-1.6.6-3.3.9-5zm-1.2-14.9c-.4 3.5-2 7.6-3.6 11.5-1.7 4.2-3.4 8.5-3.6 12.2-.6 9.1-.5 19.6 4.4 28.4h-6.1c-5.5-17.8-3.6-37.1 5.6-57.4 1-.1 2-.3 3.1-.5-.1.1-.1.3-.1.5.1 1.8.2 3.6.3 5.3zm19.1-19c-3.2-11.5 5.1-17.6 13.2-23.5 3-2.2 5.8-4.3 8-6.6-1.4 3-2.9 6-4.5 8.8-.7.6-1.7 1.3-2.8 2-4.7 3.2-11 7.7-7.8 13-1.9 2.3-4 4.4-6.1 6.3zm6.9-7.1c-2.3-4.4 3.2-8.3 7.7-11.4l.9-.6c-2.7 4.3-5.5 8.4-8.6 12zm42.1-73.7c-.3.1-.5.1-.7.2-2.5.5-3 1.1-8.4 15.5-2.6 7-6.9 12.2-12.5 15.3h-.1c-4.2 2.4-9.3 3.6-15 3.7h-.8c-6.8 0-14.7-.9-22.1-11.6-6.8-9.9-6.6-22.5-6.5-25.4.7-.3 2-.9 3.1-1.7.5-.3 1-.9 1.8-1.7 1.8-1.9 4.6-4.7 8.6-6.8 5.6-2.9 13-3.9 24-3.2 9.1.6 16.3 5.8 19.7 8.3.7.5 1.3.9 1.7 1.2 1.9 1.1 5.5 1.6 7.2 1.7v4.5z"/><path d="M371.6 212.1c-.9-3.2-6.6-10-14.7-12.4-8.3-2.4-20.2-1-24 .4-3 1.1-8.4 3.9-10.5 10.3-2.1 6.3.3 16 6.2 24.1 3.8 5.3 11 8.2 18.6 8.2 4.9 0 9.9-1.2 14.2-3.8 11.2-6.7 11.1-23.7 10.2-26.8zm-40.7-10c-.9 3.7-1.5 7.5-1.9 11.3l-5.6-1.7h-.4c.1-.3.2-.7.3-1 1.5-4.4 4.6-7.1 7.6-8.6zm-8.2 11.5l.1.1 6 1.8c-.3 3-.4 6-.4 9.1 0 2.8.2 6.1.5 8.7-4.6-6.6-6.9-14.1-6.2-19.7zm7.8 21.7c.3-.2.5-.6.5-1-.4-3.3-.6-7.1-.6-9.9 0-7.7.9-15.2 2.6-22.4.1-.3 0-.6-.2-.8.2-.1.3-.1.5-.2 2.2-.8 7.4-1.7 12.9-1.7 3.6 0 7.3.3 10.4 1.3 8.2 2.4 13.4 9.3 14.1 11.7.8 3 1 19.3-9.9 25.7-9.7 5.8-23.8 4.4-30.3-2.7zm-17.3-27.7c-.5 0-.9.2-1.2.5-.3.3-.5.8-.5 1.2 0 .5.2.9.5 1.2.3.3.8.5 1.2.5.5 0 .9-.2 1.2-.5.3-.3.5-.8.5-1.2 0-.5-.2-.9-.5-1.2-.3-.4-.7-.5-1.2-.5zm.2 1.9s-.1.1-.2.1-.1 0-.2-.1c0 0-.1-.1-.1-.2s0-.1.1-.2c0 0 .1-.1.2-.1s.1 0 .2.1.1.3 0 .4zm125-9.6c-3.8-1.4-15.8-2.9-24.2-.4-8.2 2.4-14 9.3-14.9 12.5-.9 3.2-1 20.3 10.4 27.1 4.3 2.6 9.4 3.8 14.3 3.8 7.6 0 14.9-2.9 18.7-8.3 5.9-8.2 8.4-18 6.2-24.3-2.1-6.4-7.5-9.2-10.5-10.4zm-28.2 38.4c-10.9-6.5-10.8-22.9-10-26 .7-2.4 5.9-9.4 14.2-11.8 3.2-.9 6.9-1.3 10.5-1.3 5.6 0 10.8.8 13.1 1.7.2.1.3.1.5.2-.3.2-.4.6-.4 1 1.7 7.2 2.6 14.8 2.6 22.4 0 2.7-.2 6.5-.6 9.9-.1.5.2.9.7 1-6.5 7.2-20.8 8.7-30.6 2.9zm32.1-4.7c.3-2.6.5-6.1.5-9.1s-.1-6-.4-8.9l5.4-1.8c.5-.2.8-.7.6-1.3-.2-.5-.7-.8-1.3-.6l-5 1.6c-.4-4-1.1-7.9-2-11.7 3 1.5 6.3 4.2 7.9 8.8 2.1 6-.2 15.2-5.7 23zm15.5-22.5c.1 0 .1 0 0 0 .5 0 .9-.2 1.2-.5.3-.3.5-.8.5-1.2 0-.5-.2-.9-.5-1.2-.3-.3-.8-.5-1.2-.5-.5 0-.9.2-1.2.5-.3.3-.5.8-.5 1.2 0 .5.2.9.5 1.2.3.3.8.5 1.2.5zm-.1-2s.1-.1.2-.1.1 0 .2.1c0 0 .1.1.1.2s0 .1-.1.2c0 0-.1.1-.2.1s-.1 0-.2-.1-.1-.3 0-.4zm-83.4 3.4c.8 0 1.5-.7 1.5-1.5s-.7-1.5-1.5-1.5-1.5.7-1.5 1.5.7 1.5 1.5 1.5zm0-2c.3 0 .5.2.5.5s-.2.5-.5.5-.5-.2-.5-.5c-.1-.3.2-.5.5-.5zm22.3-.9c-.8 0-1.5.7-1.5 1.5s.7 1.5 1.5 1.5 1.5-.7 1.5-1.5-.7-1.5-1.5-1.5zm0 2c-.3 0-.5-.2-.5-.5s.2-.5.5-.5.5.2.5.5c.1.2-.2.5-.5.5z"/></svg>