<svg xmlns="http://www.w3.org/2000/svg" viewBox="0 0 525.5 525.5"><path d="M463.2 317c0-.5-.5-1-1-1h-18c.3-.8.2-1.6-.4-2.3l-3.8-4.4c-3.8-4.5-10.9-7.2-18.3-7.2h-30.9c0-.1.1-.2.1-.3 0-2.9-1.6-5.4-4-6.7.1-.1.2-.3.2-.5v-73.8c0-.4-.2-.7-.5-.8 15.7.8 26.3 7.3 35.7 13.1 6 3.7 11.7 7.2 18 8.8.5.1 1.1.2 1.6.2 1.5 0 3-.5 4.2-1.5 1.7-1.3 2.7-3.3 2.7-5.5v-24.9c.3.1.6.1.8.1.7 0 1.5-.2 2.1-.6 1.3-.8 2-2.2 2-3.7-1-19-8.4-79.2-62.7-83.9-.3-3.1-2.9-5-6.9-5s-6.5 1.9-6.9 5c-55.1 4.6-62.6 64.9-63.6 83.9-.1 1.5.7 2.9 1.9 3.7.9.6 2 .7 3 .5v24.5c0 2.3 1.1 4.4 3 5.7 1.8 1.3 4.1 1.6 6.2.9 5-1.7 10-4.7 15.3-7.8 10.3-6 21.9-12.7 37.1-13.6-.3.2-.5.5-.5.8v73.8c0 .2.1.4.2.5-2.4 1.3-4 3.8-4 6.7 0 .1 0 .2.1.3H349c-.1 0-.3 0-.4.1l-.6-4.1c-1.3-8.1-6.9-14.8-14.3-17.1-6.2-1.9-15-4.1-25.4-5.1-.2-4.8-3.5-8.9-8-10.2-1.4-3.4-6.2-5.5-11.5-4.9-7 .8-14.7 6-19 17.7-3.3.7-6.6 1.6-9.8 2.6-7.6 2.3-13.3 9.1-14.5 17.4l-2.6 17.9h-24.5c-.4 0-.8.3-.8.8v67.5c0 .4.3.8.8.8s.8-.3.8-.8v-66.8h23.6l-9.1 62.5h-2.1c-.3 0-.5.2-.5.5s.2.5.5.5h2l-1 6.9c-5.8-1.9-12-2.9-18.2-2.9h-20.7c.5-.8.9-1.7.9-2.7 0-2.6-2.1-4.7-4.7-4.7h-2c-.5-2.5-4.7-25.6-6.9-63.4 0-.4-.3-.7-.6-.9 5.5-1.5 11.1-4.5 16.4-8.6h.1c.1-.1.3-.2.3-.3 15.8-12.3 29.9-34.4 35.2-58.4.1-.5-.2-1.1-.8-1.2-.5-.1-1.1.2-1.2.8-.8 3.4-1.7 6.8-2.8 10.1-.8.5-1.6.9-2.4 1.4-17.2 10.3-36.7 22-29.5 45.8-8.1 6.2-16.4 9.6-23.8 9.6-6.8 0-14.2-2.8-21.3-7.7 4.2-.6 7.8-.1 11.4.4 2.1.3 4.2.6 6.1.6 4.6 0 8.8-1.5 12.9-7.8 3.2-4.9 5-10.9 6.8-16.6 1.7-5.7 3.5-11.6 6.7-16.7 3.5-5.5 7.8-8.3 12.5-11.3 3.6-2.3 7.3-4.7 10.6-8.5 1.5-1.7 2.3-3.9 3.1-6 .7-2 1.4-3.9 2.6-5.2 2-2.3 3.8-3.1 5.7-3.8 1.2-.5 2.5-1 3.8-2-.1 2.6-.3 5.5-.6 8.1-.1.5.3 1 .9 1.1h.1c.5 0 .9-.4 1-.9.3-2.9.7-7.4.7-11.1 0-1.4 0-2.9-.1-4.3 0-.3-.1-.5-.3-.7 6-1.1 29.3-5.6 38.1-9.2 13.1-5.3 17.1-9.7 17.3-9.9.1-.1.1-.2.2-.3 0-.1.1-.2.1-.3 0-.1-.1-3.4-3.4-5.8-4.6-3.3-12.7-3.1-24.2.5-21.2 6.7-27.7 6.7-29.3 6.5-.1-.2-.2-.5-.3-.9-.6-2.1-1.8-6-3.5-10.7.6-.2.9-.2 1-.3.5-.1.9-.7.7-1.2-.1-.5-.7-.9-1.2-.7l-1.2.3c-2.5-6.7-6.1-14.7-10.7-21.7-9.9-15.1-17.7-26.6-19.9-29.7-3.1-4.5-13.9-15-26-9.8-4.3 1.8-7.9 3.9-11.3 5.9-.6.4-1.2.7-1.9 1.1-4.7 2.8-10.6 6.3-17.7 9.3l-1.5.6c-1.2.5-2.5.9-3.7 1.2-3.7 1.1-7.3 1.8-11.2 2.5-3.4.6-7 1.3-10.6 2.2-2.6.6-5.3 1.3-8.1 2.2-12.5 4.2-13.6 19.2-12.9 24.7.1.7.2 1.6.3 2.7 0 .1 0 .1.1.2v5.3c-1.2-2.8-2.7-5.7-3.9-6.5-2.1-1.3-10.4-1.9-12-2.1-.3 0-.5.1-.7.2-.2.2-.3.4-.3.7 0 .5-.7 11.5 2.9 16.3.1.2.3.3.5.3 2.4.8 5.2 1.8 6.8 2.6l-2.9 1.1c-.3.1-.5.3-.6.6-.1.3-.1.6.1.8.2.3 3.6 6.4 13 8.3l-3.4 2.9c-.2.2-.4.5-.4.8 0 .3.2.6.5.8.2.1 2.4 1.4 5.5 2.7 0 .1-.1.3 0 .4 1.4 7.5 3.9 14.9 6.2 20.9-.5.2-1 .5-1.5.7-.5.2-.7.8-.4 1.3.2.4.5.6.9.6.1 0 .3 0 .4-.1.5-.2.9-.4 1.4-.7 1.8 4.5 3.4 8 4.3 9.8.1.3.2.5.3.7-1.9 1.6-9.6 7.6-30.4 16.9-10.8 4.9-16.7 10-17.5 15.2-.5 3.1 1 5.3 1.8 6.2.2.3.4.4.5.5 0 0 .1 0 .1.1 0 0 .1 0 .1.1.1 0 .2.1.3.1.5 0 7.3-.1 16.4-3.6 9.7-3.7 29.8-16.1 31.9-17.4 1.5-.3 3-.6 4.5-1v.1c10.4 24.2 28.4 42.8 45.3 47.8 0 .1-.1.2-.1.2-2.2 38.2-6.5 61.6-7 64.2h-2c-2.6 0-4.7 2.1-4.7 4.7 0 1 .3 1.9.9 2.7h-20.7c-14.3 0-28.1 5.2-38.8 14.7-1.5 1.4-2.1 3.5-1.3 5.4.7 1.9 2.5 3.2 4.6 3.2h155.9c2.1 0 3.9-1.2 4.6-3.2.7-1.9.2-4.1-1.3-5.4-.8-.7-1.7-1.4-2.5-2.1h111.8c.3 0 .6-.1.8-.3.2-.2.3-.5.2-.8l-1.1-6.9h100.7c.3 0 .5-.1.7-.3.2-.2.3-.4.3-.7l-1.2-71.6zM384 119c1.7 0 4.3.4 4.8 2.8-1.6-.1-3.2-.2-4.8-.2h-.1c-1.6 0-3.2.1-4.8.1.6-2.3 3.2-2.7 4.9-2.7zm-67.5 88.9c-.7-.4-1-1.1-1-1.9.4-7.2 1.7-20.6 6.4-34.6-.1 3-.1 6.1 0 9.1 0 .3.2.5.5.5s.5-.2.5-.5c-.1-4.1-.1-8.3.2-12.3.8-2.3 1.8-4.5 2.8-6.8-.8 7.5-1.5 22.4 2 39 0 .2.3.4.5.4h.1c.3-.1.4-.3.4-.6-4-19-2.4-35.8-1.6-41.6 9.4-18.5 26.2-34.8 56.3-35v68.7c0 .3.2.5.5.5s.5-.2.5-.5v-68.7c29.5.2 46 16.3 55.3 34.6.8 5.5 2.5 22.6-1.6 42-.1.3.1.5.4.6h.1c.2 0 .4-.2.5-.4 3.6-16.9 2.8-32.1 2-39.5 1.1 2.3 2 4.6 2.9 6.9.2 3.5.3 7 .2 10.6 0 .3.2.5.5.5s.5-.2.5-.5c.1-2.5 0-4.9 0-7.4 4.7 14 6 27.5 6.4 34.7 0 .8-.3 1.5-1 1.9-.7.4-1.5.4-2.1 0-8.6-4.9-28.4-13.1-64.9-13.1-36.5 0-56.3 8.2-64.9 13.1-.9.7-1.7.7-2.4.3zm25.4 23.8c-5.2 3-10.2 5.9-15 7.6-1.5.5-3.1.3-4.4-.6-1.3-.9-2.1-2.5-2.1-4.1V210c0-.2-.1-.5-.2-.6 8.7-4.8 28.1-12.5 63.3-12.5 35.3 0 54.6 7.7 63.3 12.5-.1.2-.2.4-.2.6v25c0 1.5-.7 3-1.9 3.9-1.2.9-2.7 1.2-4.1.9-6-1.5-11.5-4.9-17.4-8.5-10.2-6.3-21.9-13.5-40-13.5-17.3 0-30.1 7.4-41.3 13.9zm39.1-11.9c.8 0 1.5-.1 2.3-.1.8 0 1.5 0 2.2.1-.3.2-.5.5-.5.9v73.7c-.6-.1-1.1-.2-1.7-.2s-1.2.1-1.7.2v-73.7c0-.4-.2-.7-.6-.9zm-3.3 82c0-3.1 2.5-5.6 5.6-5.6s5.6 2.5 5.6 5.6c0 .1 0 .2.1.3h-11.4c0-.1.1-.2.1-.3zm-28.8 2.3h72.9c6.9 0 13.4 2.5 16.8 6.5l3.8 4.4c.1.2.1.3.1.3-.1.2-.6.6-1.5.6-.1 0-.3 0-.4.1h-89.8l-1.9-11.9c-.1 0-.1 0 0 0zm-42.8-28.5c-2.9-.2-5.9-.4-9.1-.4-3 0-6.1.1-9.1.3.3-4.7 4.3-8.5 9.1-8.5 4.8.1 8.8 3.9 9.1 8.6zm-22.6.4c1.4-3.4 3.2-5.4 4.8-6.7-1.4 1.8-2.3 4-2.4 6.5-.8.1-1.6.1-2.4.2zm-36.2 22.6c1.1-7.4 6.2-13.6 13.1-15.7 2.8-.9 5.6-1.6 8.5-2.3-1.2 4-2.1 8.7-2.5 14.2-2.1 32.6-7.2 54.3-14.7 62.8-.4.4-.3 1 .1 1.4.2.2.4.3.7.3.3 0 .6-.1.7-.3 9.8-11.1 13.7-40.9 15.2-64 .4-5.9 1.4-10.8 2.7-14.9.4-.2.6-.6.5-1.1 0 0 0-.1-.1-.1 4-10.7 10.9-15.5 17.2-16.2 3.6-.4 7.1.7 8.7 2.5h-.4c-.2 0-.7-.1-1.3-.2-2-1.1-5.3-1.7-8.8-.6-3.6 1.1-10.3 4.9-14.2 17.7-1.9 6.2-2.3 12.7-2.7 20.9-.2 3.7-.4 7.5-.8 11.7 0 .3.2.5.5.5s.5-.2.5-.5c.4-4.3.6-8.1.8-11.8.5-8.2.9-14.6 2.7-20.7 3.8-12.4 10.1-16 13.6-17.1 2.2-.7 4.3-.7 5.9-.3h-.2c-2.1-.2-4.8.3-7.6 2-4.4 2.9-10 10-11.5 27.7 0 .3.2.5.5.5s.5-.2.5-.5c1.5-17.3 6.9-24.2 11.1-26.9.9-.6 1.8-1 2.7-1.3-.5.3-.9.6-1.4.9-6.1 4.7-9.2 14.8-9.2 30 0 2.8 0 5.6-.1 8.3 0 .6.4 1 1 1 .5 0 1-.4 1-1 0-2.7.1-5.5.1-8.3 0-9.1 1.1-15.5 2.8-19.9.2.2.5.4.9.4 4.4-.5 8.9-.7 13.2-.7 15 0 27.8 3 35.9 5.6 6.7 2.1 11.8 8.2 13 15.5l12.7 81.8H259c8.3-9.9 13.1-27.6 14-34.3 0-.3-.2-.5-.4-.6-.3 0-.5.2-.6.4-1 7.5-6.2 25.2-14.1 34.3-.1.1-.1.1-.1.2h-22.2l11.7-81.3zm2.5 101.3h-41.1c-.3-1.5-1.2-3.1-4-5.5-3.6-3-11.5-5.9-16.3-7.1h25.7c13 0 25.6 4.4 35.7 12.6zm-41.6 6.6h-9.5c-.5-.8-.2-1.6.3-2.8.2-.6.5-1.2.7-1.8h8.2v.3c-.1 1.2-.2 2.5.3 4.3zm-24 0c-1.2-.7-3.3-1.5-5.7-2.5-1.5-.6-3.5-1.4-5.2-2.2h25.3c-.1.5-.3.9-.5 1.4-.4 1-.9 2.1-.5 3.2h-13.4zm-16 0c-4.9-.9-13.9-2.9-17.9-4.6H171c1.8.9 4.3 1.9 7.2 3.1 1.4.5 2.7 1.1 3.8 1.5h-13.8zm-38.9 0c-1.1-.7-3.2-2.9-4.6-4.6h23.6c2.4 1.7 9.6 3.5 14.9 4.6h-33.9zm-6.7 0c-.7-.3-1.5-.5-2.2-.7-2.6-.8-4.8-1.4-5.9-3.9h9c1 1.4 2.8 3.4 4.2 4.6h-5.1zm-29-6.6c8.7-7 19.2-11.3 30.3-12.4-3.1 1.7-7.5 5.9-9.7 9.4-.7 1.1-1.1 2.1-1.2 2.9H93.6zm60.2-12.6h3c-.5 1.3-2.4 2.6-4.4 3.9-2.7 1.8-5.5 3.7-5.9 6.3-.1.8 0 1.6.3 2.4h-22.1c2.2-1.5 4.4-3.6 6.4-5.7 2.8-2.8 5.7-5.6 8.7-6.9h14zm-5.9 12.6c-.4-.8-.5-1.5-.4-2.3.4-2.2 3-3.9 5.5-5.6 2.3-1.5 4.4-3 4.8-4.7h16c-.8.2-1.6.5-2.3.9-1.5.7-10.8 6.4-11.2 10.4 0 .5.1.9.3 1.4h-12.7zm20.6-1.3c.1-1.3.6-2.4 1.7-3.2 2.7-2.3 8.3-2.7 11.2-2.4 3 .4 15.3 4.3 16.5 5.9.3.4.5.7.6 1h-28.9c-.7-.5-1.1-.9-1.1-1.3zm31.1 1.3c-.1-.5-.4-1.1-.9-1.7-1.6-1.9-14.1-5.8-17.2-6.2-2.5-.3-8.7-.1-11.9 2.6-1.3 1.1-2 2.4-2 3.9 0 .5.2.9.6 1.4h-6.3c-.4-.3-.6-.8-.6-1.3.3-3.2 8.4-8.6 10.6-9.6 4.3-1.9 9.8-2.3 15.5-1 4.6 1.1 13 4.1 16.6 7.1 2.4 2.1 3.3 3.4 3.6 4.7h-8zm-14.9-27.3c-12-12.5-10.2-17.9-7.2-26.6 1-2.9 2.1-6.1 2.8-10 1.5 17.3 3.3 29.8 4.4 36.6zm-4.8-41c-.6 5.8-2.1 10.1-3.4 14-3.1 9-5.1 15 8.5 28.7.3 1.7.5 2.8.6 3.5h-14.3c-6.7-21.6-5.3-42.9 3.9-63.3 1.2-.2 2.5-.4 3.7-.7-.1.2-.2.4-.2.7.3 6.1.7 11.8 1.2 17.1zm22.3-34.3c-1.6-6 .1-12.9 4.5-17.9 2-2.2 5-3.6 8-5 2.3-1 4.6-2.1 6.5-3.6-1.7 3.4-3.6 6.7-5.7 9.9-.6.4-1.3.9-2.1 1.3-3.1 1.9-6.7 4.1-7.3 7.1-.2 1.1 0 2.2.6 3.3-.2.2-.4.5-.6.7-1.2 1.5-2.6 2.9-3.9 4.2zm5.2-5.6c-.4-.8-.5-1.5-.3-2.3.5-2.5 4-4.7 6.8-6.4.1 0 .1-.1.2-.1-2 3-4.3 6-6.7 8.8zm18.1-33.5c.5-.3.9-.5 1.4-.8-1.3 3.7-2.7 7.3-4.4 10.9-1.9 2.4-5 3.8-8.2 5.3-3.1 1.4-6.2 2.8-8.3 5.2-4.7 5.3-6.5 12.9-4.6 19.3-1.6 1.6-3.3 3-5 4.3-6.7-22.7 12.3-34.1 29.1-44.2zm2.8-29.2c-1.9.8-3.9 1.6-6 4.1-1.3 1.5-2 3.5-2.8 5.5-.7 2-1.5 4.1-2.9 5.7-3.1 3.7-6.8 6-10.4 8.3-4.5 2.9-9.2 5.9-12.8 11.6-3.3 5.2-5.1 11.2-6.8 17-1.8 6-3.5 11.6-6.7 16.4-5.6 8.5-11.1 7.7-18.1 6.8-3.6-.5-7.7-1-12.2-.3-.1 0-.3.1-.3.2-2.4-1.7-4.7-3.7-7-5.8 1.7 0 3.5 0 5.4.1 1.6 0 3.3.1 5 .1 5.4 0 10.8-.5 15.1-3 5.8-3.5 8.3-10.1 10.7-16.4.8-2 1.5-4 2.3-5.8 4.6-9.9 10.2-17.9 16.6-23.8 1.7-1.6 3.9-3 6.2-4.5 5.6-3.6 11.9-7.7 11.9-14.7 5.8-3.3 11.5-6.6 17-9.9 0 .1-.1.2 0 .3.1 1.4.1 2.8.1 4.3v1.5c-1.6 1.2-2.9 1.8-4.3 2.3zm43.2-19.9c-7.1 2.9-24.5 6.5-33.5 8.3 17.3-10.3 32.1-19.1 39.4-19.1h.1c6.2 0 8.8 1.4 9.8 2.1-1.5 1.4-6.1 4.8-15.8 8.7zm-40.8-7.8c.1.2.1.3.1.5-2.6.7-9.8 2.6-19.9 5.8l1.9-12.8c6.5-2 11.4-3.4 14.3-4.2 1.7 4.7 2.9 8.5 3.6 10.7zm-44 14.2l1.9-12.7c1.7-.6 3.5-1.2 5.1-1.8l-1.9 12.7-5.1 1.8zm-24.6-2.9l-1.9 12.8c-1.8.7-3.5 1.4-5.2 2.1l1.9-12.9c1.7-.7 3.5-1.3 5.2-2zm1-.4c.7-.3 1.4-.5 2-.8l-1.9 12.8c-.7.3-1.4.5-2 .8l1.9-12.8zm3.2-1.2c1.7-.7 3.5-1.3 5.2-2l-1.9 12.8c-1.7.7-3.5 1.3-5.2 2l1.9-12.8zm6.2-2.4c5.3-2 10.3-3.8 15-5.5l-1.9 12.7c-4.8 1.7-9.9 3.5-15 5.5l1.9-12.7zm22.3-8c.7-.2 1.4-.5 2-.7l-1.9 12.7c-.7.2-1.3.5-2 .7l1.9-12.7zm3.1-1c.8-.3 1.6-.5 2.4-.8l-1.9 12.7c-.8.3-1.6.5-2.4.8l1.9-12.7zm3.4-1.2c2.6-.9 5.1-1.7 7.4-2.4l-1.9 12.8c-2.3.7-4.8 1.5-7.4 2.4l1.9-12.8zm8.4-2.7c.7-.2 1.4-.4 2-.6l-1.9 12.8c-.7.2-1.3.4-2 .6l1.9-12.8zM96.1 164.9c1.9-5.7 5.3-9.4 10.3-11 5.6-1.9 11.4-.9 17.4.2 3.7.7 7.4 1.3 11.2 1.3 3 0 6.1-.4 9.2-1.6.5-.2.8-.8.6-1.3s-.8-.8-1.3-.6c-6.5 2.5-13.1 1.3-19.4.2-2.2-.4-4.5-.8-6.8-1l4.5-.9c4.3-.8 8.6-1.6 13.4-3l.9-.3c1.3-.4 2.5-.8 3.8-1.3.4-.1.7-.2 1.1-.4 7.1-2.7 12.4-5.9 17.5-9.1.9-.6 1.9-1.1 2.8-1.7.4-.2.7-.4 1.1-.6a7272929126779848 7272929126779848 0 0 1-6.9 10c.2.2.4.2.6.2.3 0 .6-.1.8-.4.9-1.1 1.8-2.2 2.7-3.4 3.8-4.8 7.4-9.4 12.8-11.7 12.9-5.5 23.5 9 23.6 9.1 2.2 3.1 10 14.6 19.9 29.7 4.5 6.8 7.9 14.6 10.4 21.2-9.5 2.6-39.9 11.5-78.2 27.4v-4.2c0-.4-.3-.8-.7-1-.4-.1-.9 0-1.1.4l-2.2 3.5-2.7-7.5c-.1-.4-.5-.6-.9-.7-.4 0-.8.2-1 .5l-2.6 4.6c-.8-2.4-1.9-6.1-2.2-7.2-1.8-5.9-8.2-9.4-15-13-1.7-.9-3.4-1.8-5-2.8-.4-.2-.8-.2-1.1.1-.3.3-.4.7-.3 1.1l4 11c-1.9-2.2-4.5-6-7.2-12.3-1.5-3.5-12.4-9-15-10.2-.1-.8-.2-1.5-.3-2.1-.3-1.7-.3-6.5 1.3-11.2zm35.5 58.2c-.1-.1-.3-.1-.5-.1l-1.1.1 2.3-2.5c.3-.3.3-.8.1-1.2-.2-.4-.7-.5-1.2-.4-7.3 2.5-13.5 3.1-17.8 3.2 7-2.3 12.2-5.5 13.1-6.1.5.2.9.3 1.4.5.1 0 .1 0 .2.1 1 .3 2.1.6 3.1.9.1 0 .1.1.2.1 2.7.7 5.6 1.4 8.6 1.9-2.7 1-5.5 2.3-8.4 3.5zm-26.2-18.4c-5.4-7.8-7.3-18.7-7.8-22.6 1 .6 2.1 1.1 3.1 1.7.3 3.2 1.8 14.7 8.3 23.1-1.2-.7-2.4-1.4-3.6-2.2zm6.2 3.7c-7.4-7.7-9.3-19.7-9.8-24 3.1 1.9 5.8 3.8 6.4 5.1 5.5 12.6 10.7 15.8 10.9 15.9.4.2.8.2 1.1-.1.3-.3.4-.7.3-1.1l-4.5-12.4 2.7 1.5.6.3c2.1 3 8 12.5 8.4 21.8-6-1.9-11.4-4.3-16.1-7zm14.4-11c1.4 2.9 5.3 11.5 5.1 19-.8-.2-1.6-.5-2.3-.7-.2-8.5-4.9-16.9-7.5-21.1 1.6 1 3.2 1.9 4.7 2.8zm15.7 21.4c-.1-.1-.2-.1-.3-.1-3.3-.5-6.4-1.2-9.3-2 .2-6.7-2.7-14.2-4.4-18.1 2.5 1.9 4.4 4 5.2 6.5.5 1.7 2.8 9.1 2.9 9.4.1.4.5.7.8.7.4 0 .8-.2 1-.5l2.7-4.7 2.7 7.4c.1.3.3.5.6.6-.7.3-1.3.5-1.9.8zm4.5-1.9c-.5.2-.9.4-1.4.6l1.4-2.1v1.5zm-52.9-26.4c.2.5.6.7 1.1.6.5-.1.8-.5.8-1l-.1-9.3c.4.2.9.4 1.3.7.4 3 2 13.5 6.8 21.8-5.9-4.2-10.4-8.4-13.5-11.8-.7-1.1-4.3-7.2-4.7-12.2 1.4.3 2.6.5 3.1.8 1.2.7 3.6 5.9 5.2 10.4zm-6.4-2.4c-1.4-1.8-2.2-2.9-2.2-2.9s-1.7-2.5-2.6-6.3l2.1.3c.2 3 1.5 6.3 2.7 8.9zm-8.7-9.7c.9.1 1.8.2 2.8.3 1 4.2 2.7 6.9 2.8 7 .1.1 1.5 2.2 4.4 5.5-2.4-.6-7.3-2.3-9.8-6.5-.3-2.6-.3-5-.2-6.3zm7.2 20.7l3.6-1.4c.3-.1.5-.4.6-.7.1-.3 0-.6-.2-.9-1.1-1.5-6.7-3.4-8.8-4.1-.9-1.4-1.5-3.3-1.9-5.3 3.7 4.4 9.7 5.5 10.7 5.7 2.5 2.6 5.8 5.8 10 9.1-1.9.5-6.4 1.4-10.9.5-1.5-1.1-2.5-2.2-3.1-2.9zm13.5 8.4c.3-.3.4-.7.3-1.1-.1-.4-.4-.7-.8-.7-3.3-.4-5.9-1.3-7.9-2.4.7.1 1.3.1 2 .1 3.9 0 7.1-.9 7.9-1.1 1.4 1 2.8 2.1 4.4 3.1.1.1.2.2.3.2 1.8 1.2 3.8 2.4 5.9 3.6.1.1.2.1.3.1 4.2 2.3 8.9 4.5 14.1 6.2-2.1 1.3-7.9 4.5-15.2 6.4-.8-.1-1.5-.1-2-.2l4.7-6.3c.3-.3.3-.8 0-1.2-.3-.4-.7-.5-1.1-.4-6 1.9-13.9-1.7-16.9-3.3l4-3zm1.4 7.8c2.9.9 6.2 1.6 9.5 1.3l-4.1 5.5c-.2.3-.3.6-.1.9s.4.6.7.6c.4.1 8.9 2.1 22.2-1.7l-1.5 1.7c-.3.3-.3.7-.2 1.1.1.2.2.3.3.4-6.8 3.1-13.8 6.4-20.9 9.8-2.2-5.6-4.5-12.5-5.9-19.6zm6.6 21.6c17.2-8.5 33.8-15.7 48.9-21.8l-1.9 12.9c-22.1 9.1-38.5 17.2-42.5 19.3-.1-.1-.1-.3-.2-.4-.9-2-2.5-5.5-4.3-10zm-43.1 43.9c.5-3.1 3.8-8 16.4-13.7.1-.1.2-.1.4-.2 6-2.2 14.9-4.6 25.8-7.2.3-.1.4-.3.4-.6-.1-.3-.3-.4-.6-.4-7 1.7-13.1 3.2-18.1 4.7 17.1-8.3 22.6-13.2 23.5-14.1 2-1 26.8-13.6 59.2-26 7.5-2.9 14.8-5.5 21.5-7.7 21.7-7.4 37.7-11.7 39.8-12.2 1.3.3 6.3.5 21.7-3.8-4.8 2.5-9.8 5.5-15.1 8.6l-2.9 1.7c-.2.1-.3.4-.2.7.1.2.3.2.4.2.1 0 .2 0 .3-.1l2.9-1.7c7.3-4.3 14-8.3 20.3-11.2 1-.3 2.1-.6 3.2-1 13.5-4.2 19.6-2.8 22.4-.8.7.5 1.3 1.1 1.7 1.7-1.8-.8-4.7-1.5-9.3-1.5h-.1c-7.9 0-22.5 8.7-41 19.6-18.4 10.9-39.2 23.3-60.1 31.3-22.7 8.7-50.4 14.4-72.6 19-19.2 4-33 6.9-36.4 10.1-1.5 1.7-2.7 3.2-3.5 4.6zm16.6 1.1c-7.7 3-13.7 3.4-15.3 3.5-.1-.2-.3-.6-.3-1.1 0-1 .5-3.1 4-6.5 3-2.8 18-6 35.4-9.6.9-.2 1.9-.4 2.9-.6-7 4.2-19.8 11.7-26.7 14.3zm39.1-16.9c18.9-4.1 39.7-9.1 57.6-15.9 12.7-4.8 25.3-11.3 37.4-18-.3 6.1-5.9 9.8-11.4 13.3-2.4 1.5-4.6 3-6.4 4.6-6.5 6-12.2 14.1-16.8 24.1-.8 1.8-1.6 3.8-2.4 5.8-2.4 6.2-4.8 12.6-10.3 15.9-5.3 3.2-12.8 3-19.5 2.8-2.2-.1-4.2-.1-6.2-.1-.1 0-.2 0-.2.1-8.4-8.3-16.2-19.6-21.8-32.6zm45.3 48.9c2.3.6 4.7.9 6.9.9.8 0 1.6 0 2.3-.1-9.1 20.4-10.3 41.6-3.8 63.1h-12.4c.8-4 4.8-27.1 7-63.9zm-13.7 68.6c0-1.5 1.2-2.7 2.7-2.7h35.8c1.5 0 2.7 1.2 2.7 2.7 0 1.5-1.2 2.7-2.7 2.7h-35.8c-1.5.1-2.7-1.2-2.7-2.7zm-13.4 4.8c-2.5 1.5-4.9 3.9-7.2 6.2-2.5 2.5-5.1 5-7.7 6.4H114c.1-.7.5-1.5 1.1-2.4 2.5-4.1 8.3-9.3 10.9-9.7.2 0 .4-.2.4-.4.9 0 1.9-.1 2.9-.1h8.4zM91 404.7c-.3-.8-.3-1.9.4-2.8h22c1.2 3 3.3 3.9 5.9 4.6H93.7c-1.5 0-2.4-.9-2.7-1.8zm161.4 0c-.3.9-1.2 1.9-2.7 1.9h-40.5c-.5-1.8-.5-3.1-.4-4.3v-.3H252c.7.8.7 1.9.4 2.7zm-4.1-8.9c-.2 0-.3 0-.4.1-4.2-3-8.8-5.4-13.6-7.1v-.1l1.1-7.4h123.4l2.3 14.6H248.3zm114-8c-.2 0-.3.1-.5.1l-1-6.7h1.8c.3 0 .5-.2.5-.5s-.2-.5-.5-.5h-2L351 318h110.3l.5 69.8h-99.5z"/><path d="M410.5 137.5c1.8 0 3.3-1.5 3.3-3.3s-1.5-3.3-3.3-3.3-3.3 1.5-3.3 3.3 1.5 3.3 3.3 3.3zm0-5.5c1.2 0 2.3 1 2.3 2.3s-1 2.3-2.3 2.3c-1.2 0-2.3-1-2.3-2.3s1.1-2.3 2.3-2.3zm-53 5.5c1.8 0 3.3-1.5 3.3-3.3s-1.5-3.3-3.3-3.3-3.3 1.5-3.3 3.3 1.5 3.3 3.3 3.3zm0-5.5c1.2 0 2.3 1 2.3 2.3s-1 2.3-2.3 2.3-2.3-1-2.3-2.3 1-2.3 2.3-2.3zm79.7 101.7c-1.8-.7-3.7-1.7-5.9-2.8-.2-.1-.5 0-.7.2-.1.2 0 .5.2.7 2.2 1.2 4.1 2.1 6 2.9.6.2 1.2.4 1.9.4.9 0 1.9-.3 2.7-.8 1.3-.9 2.1-2.4 2.1-4v-19.6c0-.3-.2-.5-.5-.5s-.5.2-.5.5v19.6c0 1.2-.6 2.4-1.7 3.1-1 .6-2.4.8-3.6.3zm-21.8-11.5c.1-.2 0-.5-.2-.7-7.3-3.9-17.6-8.3-32.2-8.3-18 0-31.2 7.4-42.8 14-3.5 2-6.9 3.9-10.1 5.4-1.2.6-2.6.5-3.7-.2s-1.8-1.9-1.8-3.2v-18.6c0-.3-.2-.5-.5-.5s-.5.2-.5.5v18.6c0 1.6.8 3.1 2.2 4 .8.5 1.7.8 2.6.8.7 0 1.4-.2 2.1-.5 3.3-1.6 6.6-3.4 10.2-5.4 11.5-6.5 24.6-13.8 42.3-13.8 14.3 0 24.5 4.4 31.7 8.2.3 0 .6-.1.7-.3z"/><path d="M327.8 216.8c.3 0 .5-.2.5-.5v-7.1c0-.3-.2-.5-.5-.5s-.5.2-.5.5v7.1c0 .2.2.5.5.5zm.9 11.5c.5.3 1.1.5 1.6.5.4 0 .9-.1 1.3-.3 2.3-1.1 4.7-2.3 6.9-3.5.2-.1.3-.4.2-.7-.1-.2-.4-.3-.7-.2-2.2 1.1-4.5 2.3-6.8 3.4-.6.3-1.4.2-2-.1-.6-.4-.9-1-.9-1.7v-6c0-.3-.2-.5-.5-.5s-.5.2-.5.5v6c0 1.1.5 2 1.4 2.6zm22.4-9.7c7.7-3.6 18.3-7.8 32-7.8 18.4 0 30.3 6.7 40.8 12.6 4 2.2 7.8 4.4 11.7 6 .4.2.8.2 1.2.2.6 0 1.2-.2 1.7-.5.8-.6 1.3-1.5 1.3-2.5v-17.5c0-.3-.2-.5-.5-.5s-.5.2-.5.5v17.5c0 .7-.3 1.3-.9 1.6-.6.4-1.3.5-2 .2-3.8-1.6-7.6-3.7-11.6-5.9-10.6-5.9-22.6-12.7-41.2-12.7-13.9 0-24.7 4.2-32.5 7.8-.2.1-.4.4-.2.7.1.3.4.4.7.3zm36.4-66.7c.3 0 .5-.2.5-.5v-25.6c0-.3-.2-.5-.5-.5s-.5.2-.5.5v25.6c0 .3.3.5.5.5zm-6.9 32.7c.3 0 .5-.2.5-.5v-19.6c0-.3-.2-.5-.5-.5s-.5.2-.5.5v19.6c0 .3.2.5.5.5zm62.8 9.7c.3 0 .5-.2.6-.4.5-3.1.8-6.3 1-9.5 0-.3-.2-.5-.5-.5s-.5.2-.5.5c-.2 3.2-.6 6.3-1 9.4-.1.2.1.4.4.5zm-119.8-.1c.3 0 .5-.3.5-.6-.4-2.8-.7-5.7-.9-8.7 0-.3-.3-.5-.5-.5-.3 0-.5.3-.5.5.2 2.9.5 5.9.9 8.7 0 .5.2.6.5.6zM274 357.1c-.3-.1-.5.1-.6.4-1.7 6.8-3.8 12.4-6.3 17.4-.1.2 0 .5.2.7.1 0 .2.1.2.1.2 0 .4-.1.4-.3 2.6-5 4.7-10.8 6.4-17.6.1-.4-.1-.7-.3-.7zm.8-3.7h.1c.2 0 .4-.2.5-.4 2.2-10.6 3.5-23.5 4-39.5 0-.3-.2-.5-.5-.5s-.5.2-.5.5c-.5 15.9-1.8 28.8-4 39.3 0 .3.1.5.4.6zm-5.3-32.9c0-.3-.2-.5-.5-.5s-.5.2-.5.5c-3.4 36.9-16.1 43.6-16.2 43.6-.2.1-.3.4-.2.7.1.2.3.3.4.3.1 0 .1 0 .2-.1.6-.3 13.3-6.9 16.8-44.5z"/><path d="M267 351c.5-1.8 1-3.6 1.2-5.1 0-.3-.1-.5-.4-.6-.3-.1-.5.1-.6.4-1.2 6.9-5.7 19.4-12.7 23.4-.2.1-.3.4-.2.7.1.2.3.2.4.2.1 0 .2 0 .3-.1 3.2-1.9 5.9-5.3 8-9.2-1.8 5-4.2 10.1-7.1 13.9-.2.2-.1.5.1.7.1.1.2.1.3.1.2 0 .3-.1.4-.2 5-6.4 8.6-16.7 10.3-24.2zm3.5-10.4s.1 0 0 0c.3 0 .5-.2.6-.4 2.3-12.6 3-24 3.4-31.5.1-2.7.3-4.9.4-6.6 0-.3-.2-.5-.4-.5-.3 0-.5.2-.5.4-.2 1.7-.3 4-.4 6.7-.4 7.5-1 18.8-3.4 31.3-.2.3 0 .6.3.6zm44.7-55.3c1.9.8 3.8 1.7 5.6 2.7 4.2 2.4 7.4 9.2 8.1 17.5l.5 5.6c0 .3.2.5.5.5s.5-.3.5-.5l-.5-5.6c-.8-8.7-4-15.8-8.6-18.3-1.9-1.1-3.8-2-5.7-2.8-.3-.1-.5 0-.7.3-.1.2 0 .5.3.6zm-16.2-3.4c3.6 0 7.3.5 11 1.6h.1c.2 0 .4-.1.5-.4.1-.3-.1-.5-.3-.6-3.8-1.1-7.6-1.6-11.3-1.6-.3 0-.5.2-.5.5s.2.5.5.5zM176.8 138.8c4.5-.9 9.5.9 12.4 4.5 1.4 1.8 2.4 4 3.3 6.1.2.4.4.8.6 1.3 3.6 7.9 6.2 11.6 12.7 17.7.1.1.2.1.3.1.1 0 .3-.1.4-.2.2-.2.2-.5 0-.7-6.4-6-9-9.6-12.5-17.3-.2-.4-.4-.8-.6-1.3-1-2.2-1.9-4.4-3.5-6.3-3.1-3.9-8.5-5.8-13.4-4.8-.3.1-.4.3-.4.6.2.2.5.4.7.3zm-54.3 118.1h.1c15.6-3.4 35.8-8.2 53.7-15 8-3 16.5-7 26.1-12.1.2-.1.3-.4.2-.7-.1-.2-.4-.3-.7-.2-9.6 5.1-18.1 9-26 12-17.8 6.8-38 11.6-53.6 15-.3.1-.4.3-.4.6.2.3.4.4.6.4zm86.7-30.7c.1 0 .2 0 .2-.1 7.3-4 14.4-8.2 20.5-11.8.2-.1.3-.4.2-.7-.1-.2-.4-.3-.7-.2-6.1 3.6-13.2 7.8-20.5 11.8-.2.1-.3.4-.2.7.1.2.3.3.5.3z"/></svg>