<svg xmlns="http://www.w3.org/2000/svg" viewBox="0 0 525.5 525.5"><path d="M316.4 319.8c-.2-.3-.5-.4-.8-.4h-19.3c-.6 0-1 .4-1 1s.4 1 1 1h2.1c.4.9.7 1.9 1.1 2.8 1.7 4.3 3.4 8.8 5.7 12.9.1.2.3.3.4.3.1 0 .2 0 .2-.1.2-.1.3-.4.2-.7-2.2-4-3.9-8.5-5.6-12.8-.3-.8-.6-1.6-1-2.5h10.2c.6 5.3 3.6 8.7 7 12.7l.2.3c.1.1.2.2.4.2.1 0 .2 0 .3-.1.2-.2.2-.5 0-.7l-.2-.3c-3.3-3.8-6.2-7-6.8-12h5c.6 0 1-.4 1-1 .4 1.1.8 2.3 1.1 3.4.5 1.8 1 3.7 1.3 5.6 1.7 9.2.3 18.7-4 27.4-.1.2 0 .5.2.7.1 0 .1.1.2.1.2 0 .4-.1.4-.3 4.4-9 5.9-18.7 4.1-28.1-.4-1.9-.8-3.8-1.4-5.7-3-10.2-8.9-20.6-15.7-27.8-.2-.2-.5-.2-.7 0-.2.2-.2.5 0 .7 6.1 6.1 11.2 14.7 14.4 23.4zm-173.8 31.5c-2.8 0-5 2.3-5 5s2.3 5 5 5 5-2.2 5-5-2.2-5-5-5zm0 9c-2.2 0-4-1.8-4-4s1.8-4 4-4 4 1.8 4 4-1.8 4-4 4z"/><path d="M458.5 319.4h-48.6v-7.8c0-.6-.4-1-1-1h-34.3V137.8c0-2.4 1.9-4.3 4.3-4.3h48.6c2.4 0 4.3 1.9 4.3 4.3v8.3H426c-.6 0-1 .4-1 1v26.1c0 .5.4.9.9 1v.3c.7 4.7.8 4.9-6.3 10.1-11.6 8.4-17 17.6-16.6 28.1.3 7.7 3.2 14.9 8.3 20.3 5.5 5.9 12.9 9 21.5 9 17.5 0 29.8-12.6 29.8-30.7 0-7-2.9-17.3-16.6-26.7-7.2-4.9-7.1-5.6-6.4-10.1v-.3c.5-.1.9-.5.9-1v-26.1c0-.6-.4-1-1-1h-5.8v-8.3c0-3.5-2.8-6.3-6.3-6.3h-48.6c-3.5 0-6.3 2.8-6.3 6.3v172.7h-33.9c-.6 0-1 .4-1 1v7.8h-13.1c-2.9-8.9-8-17.5-15.2-25.6l-.4-.4c-1.2-1.3-2.3-2.6-3.5-4l-21-25.5h1.5c1.4 0 2.6-1.2 2.6-2.6V258c0-1.4-1.2-2.6-2.6-2.6h-11V246.5h35.9c-.1.1-.1.3-.1.4V263c-.9 1.5-4.7 8.3-4.7 10.9 0 3.1 2.6 5.7 5.7 5.7s5.7-2.6 5.7-5.7c0-2.6-3.8-9.4-4.7-10.9v-16.1c0-.2 0-.3-.1-.4h41.7c.6 0 1-.4 1-1v-96.2c0-.6-.4-1-1-1H275c-.5-3.2-3.3-5.7-6.7-5.7-3.4 0-6.2 2.5-6.6 5.7h-79.4c-.6 0-1 .4-1 1v59.2l-28-22.4.7-.9c.3-.4.2-1-.2-1.4l-12.5-10.2s-.1 0-.1-.1c-.2-3.6-2.2-6.8-5-8.7l2.8-5c.3-.5.1-1.1-.4-1.4-.5-.3-1.1-.1-1.4.4l-2.8 5c-1.3-.6-2.7-.9-4.1-1-3-.1-5.9.9-8.2 3-2.2 2.1-3.5 4.9-3.6 7.9-.1 1.6.2 3.1.7 4.5l-3.6 6.5-5.3-2.7c-.3-.2-5.3-3-13.1 3.1l-.9-.4c-.5-.2-1.1 0-1.3.4-.2.5 0 1.1.4 1.3l.1.1c-1.6 1.5-3.3 3.3-5 5.6-10.9 14.2-28.2 37.2-28.4 37.4-.2.2-.2.5-.2.8.1.3.3.5.5.7l57.3 29.8c.1.1.3.1.5.1.1 0 .3 0 .4-.1.3-.1.5-.3.6-.6 0 0 9.1-27.4 14.8-44.6 1-3.1 1.6-5.8 1.9-8.1l.2.1c.1.1.3.1.4.1.4 0 .7-.2.9-.6.2-.5 0-1.1-.4-1.3l-.9-.4c.4-9.2-4.6-11.5-4.8-11.6l-5.2-2.7 3.1-5.4c0-.1 0-.1.1-.2.8-.1 1.6-.3 2.3-.5l12 9.8c.2.1.4.2.6.2h.1c.3 0 .5-.2.7-.4l.9-1.3 33.5 26.8v25.3c0 .6.4 1 1 1h26.1c.4 0 .8-.2.9-.6l5.1 4.4c0 .2-.1.5-.1.7 0 1.5.2 2.9.6 4.1l-.1.1-9.7 11.9c-.2.2-.3.5-.2.8 0 .3.2.5.4.7l1.1.8-51.6 63.7-1.2-.9c-.4-.3-1-.2-1.4.2l-10.1 13c-.1.1-.1.1-.1.2-.5 0-1.1.1-1.6.2-5.9 1.2-9.6 7-8.4 12.8.5 2.3 1.6 4.2 3.2 5.7v9.1H127c-.6 0-1 .4-1 1v5.8H92.6c-.6 0-1 .4-1 1v11.3c0 .6.4 1 1 1h99.2c.6 0 1-.4 1-1v-11.3c0-.6-.4-1-1-1h-33.4v-5.8c0-.6-.4-1-1-1h-8.3V365c3.3-2.5 5-6.7 4.1-10.9 0-.1-.1-.3-.1-.4.1 0 .1-.1.2-.1l10.1-13c.2-.2.2-.5.2-.8s-.2-.5-.4-.7l-1.2-.9 51.6-63.6 1.3 1c.2.1.4.2.6.2.3 0 .6-.1.8-.4l9.7-11.9c.2-.2.2-.5.2-.8 3.1-.2 5.9-1.5 7.8-3.7l5.4 4.1c.2.1.4.2.6.2.3 0 .6-.1.8-.4.3-.4.2-1.1-.2-1.4l-5.4-4.1c1-1.6 1.7-3.6 1.7-5.6.1-1.9-.3-3.7-1.1-5.2h25.7v8.9h-11c-1.4 0-2.6 1.2-2.6 2.6v3.2c0 1.4 1.2 2.6 2.6 2.6h1.4l-21 25.5c-1.1 1.3-2.3 2.7-3.4 4l-.4.5c-7.6 8.6-12.9 17.7-15.7 27.2-.6 2.1-1.1 4.2-1.5 6.4-4.2 22.4 8 45.6 31.2 59.1 1 2.6 3.5 6.9 6.9 6.9h161.2c.1.1.2.2.4.2.1 0 .2 0 .3-.1l.1-.1h48.5c2.9 0 5.2-2.4 5.2-5.2v-63.5c.1-3.1-2.3-5.4-5.2-5.4zm-24.8-122v20.7H432v-20.7l.8-4.4.9 4.4zm-2.7-.1l-4.3 23c0 .2 0 .4.2.5l5.1 3.9-2.2 1.7-7.4-6.2 5.2-27.7h3.4v4.8zm-3.2 22.9l3.3-17.5v15.8c0 .3.2.5.5.5h2.7c.3 0 .5-.2.5-.5v-15.8l3.3 17.5-5.1 3.9-5.2-3.9zm11 .6c.1-.1.2-.3.2-.5l-4.3-23v-4.8h3.4l5.2 27.7-7.4 6.2-2.2-1.7 5.1-3.9zm-5.6-29.3H432v-17.3h1.7v17.3h-.5zm-2.2 0h-3.8c-.2 0-.4.2-.5.4l-5.3 28.4c0 .2 0 .4.2.5l8 6.6c.1.1.2.1.3.1.1 0 .2 0 .3-.1l2.7-2.1 2.7 2.1c.1.1.2.1.3.1.1 0 .2 0 .3-.1l8-6.6c.1-.1.2-.3.2-.5l-5.3-28.4c0-.2-.3-.4-.5-.4h-3.8v-17.3h3c0 .3-.1.5-.1.8-.1-.1-.2-.1-.3-.1-.3 0-.5.2-.5.5l-.5 7.3c-.1 2 .9 3.9 2.6 4.9 5.2 3 17.2 11.3 17.2 24.3 0 6.8-2.9 13.2-8.1 17.6-5.1 4.4-11.9 6.4-18.7 5.4-10.9-1.6-19.2-10.8-19.8-21.9-.7-14.2 11.7-22.5 17.1-25.4 1.8-1 2.9-2.9 2.7-5l-.5-7.2c0-.3-.3-.5-.5-.5-.1 0-.2.1-.3.1 0-.3-.1-.5-.1-.8h3v17.3zm14-5.3c7.2 4.9 15.7 13.2 15.7 25.1 0 16.9-11.4 28.7-27.8 28.7-17.5 0-27.2-13.8-27.8-27.4-.4-9.7 4.8-18.3 15.8-26.4 4.9-3.6 6.8-5.3 7.3-7.4l.2 3.8c.1 1.7-.8 3.3-2.2 4.1-5.5 3-18.3 11.6-17.6 26.4.6 11.6 9.2 21.2 20.6 22.8 1.2.2 2.4.3 3.6.3 5.8 0 11.5-2.1 15.9-5.9 5.3-4.6 8.4-11.3 8.4-18.4 0-13.5-12.4-22.1-17.7-25.1-1.4-.8-2.2-2.4-2.1-4l.2-3.9c.6 2.1 2.5 3.9 7.5 7.3zm-6.3-14h-11.6v-24.1h11.6v24.1zM311.8 277.6c-2 0-3.7-1.7-3.7-3.7 0-1.2 1.5-4.5 3-7.3.2.2.4.3.7.3.3 0 .5-.1.7-.3 1.5 2.8 3 6.1 3 7.3 0 2-1.7 3.7-3.7 3.7zm-121 113.8H93.6v-9.3h97.2v9.3zm-34.4-11.6h-28.5v-4.4h28.5v4.4zm288.5 10.4c-.3.4-.5.8-.5 1.2h-19.9c-3.6-1.9-4-3.1-3.9-3.6.5-2.6 11.1-4 16.2-4.6 2.4-.3 3.6-.5 4-.6 4.1-1.8 6.7-6.7 9.2-11.3 3.2-5.8 6.2-11.3 11.7-11.2v17.1c-3.8.7-14.7 9.9-16.8 13zm-35.7 1.2c-2.2-3.7-2.8-6.8-1.8-8.9 1.9-4.2 9.2-5.2 15.7-6.2 3.2-.5 6.2-.9 8.4-1.7 6.6-2.3 9.8-7.8 12.9-13.1 3.9-6.7 7.5-13 17.4-13.6V359c-6.1-.1-9.4 5.9-12.6 11.8-2.5 4.5-5 9.2-8.8 10.9-.3.1-2 .3-3.7.6-8.4 1-16.6 2.3-17.1 5.4-.2 1.2.7 2.4 2.9 3.8h-13.3zm52.6-44.6c-10.5.7-14.5 7.5-18.3 14.1-3.1 5.4-6.1 10.5-12.3 12.7-2.1.7-5.1 1.2-8.2 1.6-6.7 1-14.3 2.1-16.4 6.8-1.1 2.4-.6 5.5 1.6 9.4h-20.3c4.3-14.2 11.8-16.6 22.1-19.8 3.8-1.2 8.1-2.6 12.8-4.7 7.2-3.3 12-9.7 16.6-15.9 6-8.1 11.8-15.8 22.5-17.1v12.9zm0-22.2v8.2c-11.2 1.3-17.3 9.5-23.3 17.5-4.5 6.1-9.2 12.4-16.2 15.6-4.6 2.1-8.9 3.4-12.7 4.6-10.7 3.4-18.4 5.8-22.9 20.8h-7.9c0-9.7 3.3-13.2 8.2-18.3 1.3-1.3 2.6-2.7 4-4.3 2.9-3.4 4-5.6 3.6-7.4-.5-2-2.7-3-5.9-4.3-1.8-.8-3.8-1.6-5.9-2.9-2.8-1.7-5.4-3.7-7.8-5.7-3.8-3-7.8-6.2-12.8-8.1-12.1-4.5-16.2-6.6-20.9-19.1h8.5c2.4 7.4 9.8 9.1 17 10.7 3.3.7 6.5 1.4 9 2.7 4.6 2.2 8.2 5.7 11.7 9.1 4.1 3.9 8.3 8 14 10.3 4.2 1.7 8.2 2.5 11.9 2.5 7.5 0 13.9-3.5 18.9-10.4 1.7-2.3 3.1-5.3 4.7-8.4 3.4-6.9 7.1-14.5 13.9-16.5h7.4c2 .2 3.5 1.6 3.5 3.4zm-146.4 66.8c-.9-1.9-.2-3.2.6-4.5.8-1.4 1.8-3-.3-4.9-2-1.8-4.5-1.3-6.8-.8-2.1.5-3.9.8-5.3-.3 4.1-3.2 7.8-6.8 10.9-10.6 2 .9 4.3 1.4 6.5 1.9 4.5 1 8.7 1.9 10.5 6 1.5 3.6.4 5.5-1 7.6-1 1.6-1.9 3.2-1.9 5.5h-13.2zm-12.6-9.9c1.8 1.6 4.1 1.1 6.3.6 2.2-.5 4.3-.9 5.9.5 1.5 1.4 1 2.2.1 3.7-.8 1.3-1.7 2.9-.9 5h-21.9c1.4-1.5 2.5-3.5 3-4.9 2.7-1.5 5.2-3.1 7.5-4.9zm28.6 4.9c1.3-2.2 2.7-4.5 1-8.6-2-4.6-6.7-5.6-11.2-6.6-2.1-.4-4.2-.9-6-1.7 2.8-3.5 5.1-7.2 7-11.1 3 3.7 7.3 5.4 11.4 7.1 3.6 1.5 7.3 3 10 5.7 4.2 4.2 3.5 7.4 2.6 11.2-.6 2.6-1.3 5.5-.3 9h-16.2c-.1-2.1.8-3.5 1.7-5zm15.4 4.8c-.9-3.3-.3-6 .3-8.6.9-3.8 1.7-7.5-2.9-12.1-2.9-2.9-6.7-4.4-10.3-5.9-4.4-1.8-8.5-3.5-11.3-7.2 1.8-4 3.1-8.1 3.9-12.3 0 .1.1.1.1.2 4.3 4.2 9.9 6.7 15.3 9.1 5.7 2.6 11 5 14.9 9.1 6.4 6.8 4 11.3 1.3 16.6-1.7 3.4-3.5 6.9-3.1 11.2h-8.2v-.1zm12.2-10.6c2.6-5.1 5.4-10.4-1.5-17.8-4-4.3-9.7-6.9-15.2-9.4-5.3-2.4-10.8-4.9-15-8.9-.2-.2-.5-.2-.7 0 1-5.7 1-11.5-.1-17.3-.4-2-.9-4-1.4-5.9h4.9c-.1.1-.1.2-.1.3-1.9 16.3 14.5 21.8 27.7 26.2 4.2 1.4 8.1 2.7 11.2 4.3 5.3 2.6 8.4 5.5 9.5 8.8 1.5 4.7-1.2 10-4.1 15.6-2.4 4.7-4.9 9.5-5.6 14.9h-12.5c-.5-4.1 1.2-7.5 2.9-10.8zm16.1-3.6c3-5.8 5.8-11.3 4.2-16.4-1.2-3.6-4.4-6.6-10-9.4-3.1-1.6-7.1-2.9-11.3-4.3-13.5-4.5-28.8-9.7-27-25.1 0-.1 0-.3-.1-.4h9.6v.2c4.8 13 9 15.1 21.5 19.8 4.9 1.8 8.6 4.8 12.6 7.9 2.5 2 5.1 4 8 5.7 2.1 1.3 4.2 2.2 6 2.9 2.9 1.2 4.9 2.1 5.3 3.7.3 1.4-.8 3.4-3.4 6.5-1.4 1.6-2.7 2.9-4 4.3-4.9 5.1-8.5 8.9-8.5 19h-8.3c.6-5.1 3-9.9 5.4-14.4zm48.6-55.6c-2.9 5.1-6.1 8-9.8 8.8-6.1 1.5-12.7-2.9-19.1-7.1-.9-.6-1.8-1.2-2.7-1.7h31.6zm-33.4 0c1.3.8 2.7 1.7 4 2.6 5.7 3.7 11.5 7.6 17.2 7.6.9 0 1.8-.1 2.7-.3 4-1 7.4-4.1 10.5-9.6 0-.1.1-.2.1-.2h9.6c-.9 1.6-1.8 3.2-2.8 4.9-6.7 12.1-14.3 25.9-29.5 18.3-3.6-1.8-6.7-4.6-9.7-7.3-2.9-2.6-5.8-5.3-9.3-7.1-2.6-1.4-5.5-2.3-8.4-3.3-4.1-1.3-8.3-2.7-11.6-5.5h27.2zm-28.7 0c3.5 3.5 8.2 5 12.8 6.5 2.8.9 5.7 1.8 8.2 3.2 3.4 1.8 6.3 4.4 9.1 7 3 2.8 6.2 5.6 10 7.5 3.2 1.6 6 2.3 8.6 2.3 10.6 0 16.9-11.4 22.2-21 1-1.9 2-3.7 3-5.3v-.1h12.8c-5.7 3-9 9.8-12.1 16.1-1.5 3.1-3 6-4.6 8.3-7 9.8-17.3 12.4-29.5 7.5-5.6-2.2-9.7-6.2-13.7-10.1-3.6-3.4-7.3-7-12-9.3-2.7-1.3-5.9-2-9.2-2.8-6.8-1.5-13.8-3.1-16.2-9.7h10.6zm-21.9-8.9h68.2v6.8h-68.2v-6.8zm-32.2-17.8l.4.4c7.4 8.4 12.5 17.2 15.3 26.4.6 2 1.1 4.1 1.5 6.2 4.1 21.7-7.9 44.1-30.5 57.2-.2.1-.4.3-.4.5-1 2.9-3.3 5.9-5.1 5.9H275v-3.7h11.4c2.8 0 5-3.9 5.8-6.1 7.2-4.2 13.2-9.3 17.9-15.4.2-.2.1-.5-.1-.7-.2-.2-.5-.1-.7.1-4.7 6-10.7 11.1-17.8 15.2-.1.1-.2.2-.2.3-1 2.7-3 5.6-5 5.6h-.2c0-.1.1-.2.1-.4v-13.8c0-.6-.4-1-1-1s-1 .4-1 1v13.8c0 .1 0 .2.1.4H275v-3.3c0-.6-.4-1-1-1h-4.8v-114h9.5l17 20.2c.2.2.5.2.7.1.2-.2.2-.5.1-.7l-17.2-20.4c-.1-.1-.2-.2-.4-.2h-9.7v-3.6H282l22 26.8c1.1 1.5 2.4 2.8 3.5 4.2zm-45 87.7c-.6 0-1 .4-1 1v3.3h-11.4c-1.9 0-4-2.9-5-5.6 0-.1-.1-.2-.2-.3-20.3-11.8-31.1-32-27.5-51.6.3-1.8.8-3.7 1.3-5.6 3-10 8.8-20.3 15.5-27.4l23.5-27.9h9.5v114h-4.7zm1 2h9.5v2.3h-9.5v-2.3zm9.5 3.3v3.7h-9.5v-3.7h9.5zm-4.7-243.1c2.3 0 4.2 1.6 4.6 3.7h-9.3c.5-2.1 2.4-3.7 4.7-3.7zm-138.6 20.3h.4c1.1 0 2.2.3 3.2.7l-2.1 3.9c-.4-.1-.8-.2-1.3-.2-2.7-.1-5.1 2.1-5.2 4.8s2.1 5.1 4.8 5.2h.2c1.3 0 2.5-.5 3.4-1.3 1-.9 1.6-2.1 1.6-3.5.1-1.3-.4-2.6-1.3-3.6l-.4-.4 2.1-3.9c2.5 1.8 4.1 4.7 4 8-.1 2.5-1.2 4.8-3 6.5-.9.8-1.9 1.4-2.9 1.8-.1 0-.1 0-.2.1-1.1.4-2.4.6-3.6.6-5.2-.2-9.2-4.6-9-9.7.2-5 4.3-9 9.3-9zm-.5 10.3c.2.1.3.1.5.1.4 0 .7-.2.9-.5l1.9-3.4.2.2c.7.8 1.1 1.8 1.1 2.9 0 1.1-.5 2.1-1.3 2.8-.8.7-1.8 1.1-2.9 1.1-2.2-.1-3.9-2-3.9-4.2.1-2.2 1.9-3.9 4-3.9h.2c.3 0 .6.1.8.1l-1.9 3.4c-.2.5 0 1.1.4 1.4zm4.6 39.9c-5 15.1-12.6 38.2-14.4 43.5l-55.2-28.8c.8-1.1 2.4-3.1 4.3-5.7l49.7 25.9c.1 0 .2.1.2.1.2 0 .4-.1.4-.3.1-.2 0-.5-.2-.7l-49.5-25.8c6.1-8 15.7-20.8 22.8-29.9 1.9-2.5 3.7-4.4 5.4-5.8l38.4 19.1c-.2 2.3-.8 5.1-1.9 8.4zm2-10.6L99 186.2c2.2-1.6 4.1-2.4 5.5-2.7 2.9-.7 4.5.3 4.6.3l23 11.9c.1 0 3.8 1.7 3.7 8.8zm-18.6-18.8l3-5.3c1.8 2.8 4.9 4.8 8.5 5.1l-2.7 4.7-8.8-4.5zm28.6 7l-10.4-8.5c.7-.4 1.4-.9 2.1-1.5 1.9-1.8 3.1-4.1 3.5-6.6l10.7 8.7-.5.7c-.1 0-.1.1-.2.1-.1.1-.1.2-.1.3l-5.1 6.8zm6.2-5.1l59.7 47.8-3.4 3.9-59.4-47.6 3.1-4.1zm31.2 56.9v-22.7l23.8 19.1-.9 1.1c-.2.2-.3.5-.2.7 0 .3.1.5.4.7l1.3 1.1h-24.4zm25.1-2l6.4-7.5 6.8 5.7c-3.2 1.3-5.7 3.9-6.7 7.2l-6.5-5.4zm-61.2 130.8h-9.9v-7.5c1.6.9 3.5 1.4 5.4 1.4.7 0 1.5-.1 2.2-.2.8-.2 1.5-.4 2.3-.7v7zm-2.7-8.3c-4.8 1-9.5-2.1-10.5-6.8-1-4.8 2.1-9.5 6.8-10.5.6-.1 1.2-.2 1.8-.2 4.1 0 7.8 2.9 8.7 7 1.1 4.8-2 9.5-6.8 10.5zm7.9-13.5c-1.6-3.1-4.5-5.3-7.9-5.9l8.8-11.4 8 5.8-8.9 11.5zm8.1-14.5l-4-2.9 51.6-63.6 3.9 2.9-51.5 63.6zm55-63.7l-1.3-.9-6.6-4.9 8.5-10.4c1.7 2.9 4.7 5 8.2 5.5l-8.8 10.7zm10.8-22.8c-.4-.3-1.1-.2-1.4.2-.3.4-.2 1.1.2 1.4l3.1 2.3c-.7.6-1.6.9-2.6.9-1.1 0-2.1-.5-2.8-1.3-.7-.8-1.1-1.8-1.1-2.9 0-1.1.5-2.1 1.3-2.8.8-.7 1.7-1.1 2.7-1.1h.1c2.2.1 4 1.9 3.9 4.1 0 .5-.1 1-.3 1.4l-3.1-2.2zm-.4-4.2c-1.3 0-2.6.4-3.6 1.4-1 .9-1.5 2.2-1.6 3.5 0 1.3.4 2.6 1.4 3.6.9 1 2.2 1.5 3.5 1.6h.2c1.3 0 2.4-.5 3.3-1.3l3.5 2.7c-1.8 1.9-4.3 3-7.1 2.9-5.2-.2-9.2-4.5-9-9.7.2-5.2 4.5-9.2 9.7-9 2.5.1 4.8 1.1 6.5 3 1.7 1.8 2.6 4.2 2.5 6.7-.1 1.7-.5 3.2-1.3 4.5l-3.5-2.7c.3-.6.5-1.3.5-2 0-2.8-2.2-5.1-5-5.2zm.2-6.3c-.8 0-1.6 0-2.3.2-.1-.1-.1-.3-.3-.4l-8.2-6.9c-.4-.4-1-.3-1.4.1l-.8 1-9.7-7.8v-62.9c0-.3-.2-.5-.5-.5s-.5.2-.5.5v62.1L183 209.9c.1-.2.2-.4.2-.6v-59h9v47.1c0 .3.2.5.5.5s.5-.2.5-.5v-47.1h19.1v46.8c0 .3.2.5.5.5s.5-.2.5-.5v-46.8h140v94.2h-118c-.2 0-.3.1-.5.1-2-2.7-5.2-4.5-8.8-4.6zm37.5 6.5h9.6v8.9h-9.5v-8.7c-.1-.1-.1-.1-.1-.2zm-13.6 14.7V258c0-.3.3-.6.6-.6H286c.3 0 .6.3.6.6v3.2c0 .3-.3.6-.6.6h-35.6c-.2 0-.5-.3-.5-.6zm-7 124.2c-.1-.2-.3-.4-.5-.5-22.6-13.1-34.5-35.5-30.5-57.2.4-2 .9-4.1 1.5-6.2 2.7-9.2 7.8-18.1 15.2-26.4l.4-.5c1.2-1.3 2.3-2.6 3.5-4l22-26.8h12.7v3.6h-9.7c-.1 0-.3.1-.4.2l-23.6 28c-6.8 7.2-12.7 17.6-15.7 27.8-.6 1.9-1 3.8-1.4 5.7-3.7 19.9 7.2 40.5 27.8 52.5.8 2.2 3 6.1 5.8 6.1h11.4v3.7H248c-1.9 0-4.1-3.1-5.1-6zm215.6 6h-13.1v-.1c.1-.7 3-3.9 8-7.9 4.2-3.3 7-5 8.3-5.3v10c.1 1.8-1.4 3.3-3.2 3.3z"/><path d="M311.9 345.2c-1.4-1.4-2.7-2.8-3.9-4.7-.1-.2-.5-.3-.7-.2-.2.1-.3.5-.2.7 1.3 2 2.6 3.4 4 4.9.8.9 1.7 1.8 2.6 2.8.1.1.2.2.4.2.1 0 .2 0 .3-.1.2-.2.2-.5.1-.7-.9-1.1-1.8-2-2.6-2.9zm-10.1 10.1c-1.8-4.2-3.7-8.6-7-11.4-.2-.2-.5-.2-.7 0-.2.2-.2.5 0 .7 3.1 2.7 4.9 6.8 6.7 11 1.6 3.6 3.2 7.3 5.7 10.2.1.1.2.2.4.2.1 0 .2 0 .3-.1.2-.2.2-.5 0-.7-2.3-2.8-3.9-6.4-5.4-9.9z"/><path d="M298.6 371.7c-1.7-5.7-4.3-14.3-12.3-12.5v-19.7c2.1.7 4.1 1.8 5.7 3.2.1.1.2.1.3.1.1 0 .3-.1.4-.2.2-.2.2-.5-.1-.7-1.8-1.5-3.8-2.7-6.1-3.4h-.4v-14c0-1.8 1.5-3.2 3.2-3.2.6 0 1-.4 1-1s-.4-1-1-1c-2.9 0-5.2 2.4-5.2 5.2v39.4c0 .6.4 1 1 1s1-.4 1-1v-3.8c7.3-1.8 9.7 6 11.4 11.7l.4 1.2c.1.2.3.4.5.4h.1c.3-.1.4-.4.3-.6l-.2-1.1z"/></svg>